<?xml version="1.0" encoding="utf-8"?>
<!-- Generator: Adobe Illustrator 15.0.0, SVG Export Plug-In . SVG Version: 6.00 Build 0)  -->
<svg version="1.2" baseProfile="tiny" xmlns="http://www.w3.org/2000/svg" xmlns:xlink="http://www.w3.org/1999/xlink" x="0px"
	 y="0px" width="800px" height="800px" viewBox="0 0 800 800" xml:space="preserve">
<g id="Layer_2" display="none">
	<rect x="-14" y="-9" display="inline" width="829" height="822"/>
</g>
<g id="Layer_1">
	<g>
		<path fill="#FFFFFF" d="M124.284,419.293c-3.447-2.368-7.456-3.957-12.033-4.766c-4.577-0.808-9.29-1.08-14.141-0.815
			c-4.85,0.264-8.885,0.571-12.098,0.921c-2.96,0.321-6.113,0.632-9.463,0.93c-3.353,0.3-6.488,0.186-9.405-0.34
			c-2.92-0.525-5.462-1.772-7.628-3.745c-2.165-1.971-3.478-5.072-3.938-9.303c-0.292-2.693,0.205-5.896,1.494-9.602
			c1.288-3.708,3.083-7.565,5.379-11.579c2.297-4.012,4.986-8,8.07-11.967c3.082-3.968,6.272-7.525,9.575-10.674
			c3.3-3.145,6.594-5.775,9.879-7.882c3.284-2.106,6.21-3.303,8.784-3.583c1.669-0.181,3.163,0.08,4.476,0.782
			c1.312,0.707,2.428,1.688,3.347,2.955c0.918,1.266,1.657,2.684,2.217,4.249c0.562,1.567,0.918,3.056,1.072,4.469
			c0.335,3.087,0.039,6.958-0.886,11.612c-0.928,4.656-2.396,9.109-4.405,13.359c-2.011,4.253-4.553,7.813-7.622,10.685
			c-3.074,2.87-6.578,4.13-10.52,3.777c0.295,1.529,0.872,2.636,1.728,3.326c0.855,0.688,1.717,1.148,2.589,1.377
			c0.87,0.232,1.722,0.302,2.56,0.211c0.835-0.091,1.447-0.157,1.833-0.199c2.57-0.279,5.027-1.327,7.368-3.144
			c2.339-1.815,4.535-4.069,6.583-6.766c2.05-2.692,3.871-5.69,5.465-8.986c1.593-3.295,2.922-6.625,3.989-9.996
			c1.064-3.366,1.854-6.576,2.37-9.625c0.514-3.048,0.653-5.664,0.416-7.853c-0.656-6.043-3.161-10.521-7.508-13.433
			c-4.351-2.91-9.418-4.052-15.205-3.423c-3.858,0.419-8.004,1.781-12.438,4.083c-4.434,2.306-8.902,5.196-13.403,8.677
			c-4.502,3.482-8.824,7.431-12.962,11.849c-4.14,4.419-7.744,8.974-10.811,13.665c-3.071,4.694-5.427,9.341-7.074,13.943
			c-1.647,4.604-2.262,8.832-1.843,12.691c0.628,5.786,2.806,9.976,6.536,12.563c3.728,2.588,8.102,4.228,13.123,4.918
			c5.019,0.692,10.233,0.775,15.642,0.253c5.408-0.521,10.041-0.992,13.898-1.411c2.186-0.238,4.74-0.385,7.661-0.442
			c2.922-0.056,5.745,0.19,8.473,0.738c2.725,0.553,5.086,1.63,7.084,3.233c1.995,1.606,3.161,3.949,3.496,7.036
			c0.266,2.444-0.177,4.966-1.326,7.561c-1.151,2.598-2.676,5.009-4.582,7.23c-1.905,2.226-4.028,4.243-6.368,6.06
			c-2.341,1.814-4.577,3.102-6.706,3.851c-0.771-1.087-1.984-2.094-3.646-3.021c-1.661-0.923-3.321-1.522-4.977-1.802
			c-1.659-0.273-3.139-0.146-4.447,0.387c-1.309,0.531-1.938,1.645-1.883,3.326c0.034,3.901,1.411,6.419,4.138,7.554
			c2.726,1.138,5.951,1.5,9.683,1.095c3.858-0.418,7.888-1.641,12.093-3.664c4.203-2.023,8.023-4.591,11.459-7.709
			c3.434-3.115,6.206-6.648,8.314-10.6s2.931-8.059,2.468-12.321C129.711,425.236,127.729,421.663,124.284,419.293z"/>
		<path fill="#FFFFFF" d="M478.982,359.761c-1.275-0.966-2.707-1.56-4.292-1.777c-1.585-0.219-3.198-0.073-4.833,0.428
			c-1.638,0.503-3.037,1.402-4.196,2.7c-2.449,2.607-4.386,5.746-5.809,9.413c-1.425,3.668-2.475,7.167-3.153,10.491
			c-0.196-1.799-0.395-3.632-0.598-5.497c-0.202-1.863-0.53-3.682-0.982-5.456c-0.441-1.643-1.265-2.659-2.479-3.049
			c-1.214-0.386-2.599-0.562-4.155-0.524c-1.03,0.112-2.359,0.451-3.988,1.019c-1.632,0.566-2.497,1.573-2.601,3.015
			c0.076,4.286,0.337,8.486,0.783,12.601c0.447,4.117,0.904,8.328,1.372,12.635c0.045,0.412,0.091,0.805,0.136,1.213
			c-1.325,3.473-2.99,6.954-5.017,10.443c-2.139,3.68-4.677,6.98-7.61,9.901c-2.938,2.923-6.207,4.576-9.805,4.967
			c-2.444,0.266-4.548-0.228-6.31-1.481c-1.764-1.256-3.299-2.799-4.603-4.631c-1.304-1.829-2.328-3.757-3.066-5.782
			c-0.74-2.022-1.254-3.743-1.536-5.157l0.964-0.105c2.701-0.293,5.122-1.366,7.262-3.228c2.141-1.857,3.946-4.103,5.416-6.734
			c1.473-2.631,2.543-5.353,3.214-8.157c0.672-2.806,0.881-5.365,0.629-7.681c-0.209-1.928-0.637-3.767-1.282-5.521
			c-0.647-1.75-1.53-3.313-2.656-4.687c-1.123-1.373-2.507-2.427-4.148-3.162c-1.641-0.729-3.492-0.986-5.549-0.763
			c-4.115,0.447-7.447,2.112-9.996,4.989c-2.551,2.882-4.494,6.247-5.833,10.099c-1.337,3.854-2.168,7.882-2.493,12.079
			c-0.205,2.642-0.263,5.036-0.207,7.236c-0.021,0.071-0.038,0.137-0.058,0.209c-0.903,3.093-2.072,6.08-3.515,8.97
			c-1.442,2.89-3.023,5.403-4.744,7.541c-1.719,2.139-3.536,3.378-5.452,3.715c-1.402,0.283-2.469-0.869-3.206-3.458
			c-0.738-2.584-1.382-5.833-1.937-9.743c-0.555-3.906-1.116-8.173-1.682-12.797c-0.568-4.623-1.389-8.89-2.464-12.81
			c-1.078-3.914-2.495-7.078-4.251-9.491c-1.759-2.411-4.054-3.463-6.881-3.157c-3.473,0.377-6.407,2.111-8.804,5.195
			c-2.397,3.088-4.383,6.684-5.952,10.795c-1.573,4.111-2.837,8.334-3.796,12.667c-0.963,4.334-1.748,7.899-2.353,10.696
			c-2.514-6.362-5.075-11.385-7.687-15.072c-2.614-3.683-5.46-5.36-8.547-5.024c-1.802,0.196-3.248,0.646-4.342,1.349
			c-1.094,0.706-2.175,2.159-3.236,4.354c-0.124-2.33-0.26-4.199-0.414-5.616c-0.153-1.413-0.357-3.279-0.607-5.595
			c-0.251-2.313-1.005-3.857-2.26-4.633c-1.255-0.772-3.04-1.037-5.354-0.785c-1.032,0.112-2.044,0.354-3.045,0.721
			c-1.002,0.371-1.852,0.919-2.554,1.645c-0.474,0.442-0.67,2.219-0.592,5.333c0.076,3.114,0.223,6.547,0.435,10.298
			c0.212,3.751,0.466,7.302,0.767,10.65c0.138,1.555,0.256,2.861,0.358,3.942c-0.032,0.109-0.058,0.212-0.09,0.322
			c-0.902,3.093-2.072,6.08-3.515,8.97c-1.442,2.888-3.023,5.403-4.744,7.541c-1.719,2.138-3.537,3.378-5.452,3.715
			c-1.403,0.283-2.47-0.87-3.206-3.459c-0.739-2.584-1.384-5.832-1.936-9.743c-0.557-3.906-1.117-8.172-1.684-12.797
			c-0.568-4.622-1.388-8.889-2.463-12.809c-1.078-3.914-2.495-7.078-4.25-9.492c-1.76-2.41-4.055-3.463-6.882-3.156
			c-3.473,0.377-6.406,2.111-8.804,5.195c-2.397,3.087-4.382,6.684-5.952,10.794c-1.573,4.112-2.837,8.335-3.796,12.666
			c-0.963,4.334-1.747,7.9-2.351,10.697c-2.516-6.363-5.077-11.385-7.688-15.072c-2.613-3.683-5.46-5.359-8.547-5.023
			c-1.803,0.194-3.249,0.645-4.343,1.348c-1.095,0.707-2.175,2.159-3.236,4.354c-0.125-2.33-0.261-4.199-0.415-5.616
			c-0.153-1.413-0.356-3.279-0.607-5.595c-0.252-2.313-1.005-3.857-2.26-4.634c-1.255-0.772-3.041-1.036-5.355-0.784
			c-1.031,0.111-2.044,0.354-3.045,0.721c-1.003,0.371-1.852,0.918-2.554,1.644c-0.474,0.442-0.671,2.22-0.592,5.334
			c0.076,3.115,0.223,6.547,0.435,10.298s0.467,7.301,0.767,10.65c0.253,2.855,0.445,4.904,0.574,6.166
			c-0.039,0.235-0.077,0.466-0.119,0.713c-0.559,3.25-1.401,6.592-2.521,10.032c-1.124,3.44-2.509,6.551-4.159,9.332
			c-1.649,2.782-3.568,4.29-5.754,4.528c-1.802,0.194-3.384-0.609-4.751-2.412c-1.366-1.803-2.576-4.239-3.624-7.314
			c-1.05-3.073-1.95-6.554-2.695-10.443c-0.749-3.886-1.371-7.819-1.867-11.8c-0.499-3.978-0.844-7.778-1.042-11.402
			c-0.198-3.619-0.244-6.737-0.138-9.353c-1.44-1.275-2.945-1.956-4.515-2.048c-1.572-0.088-3.188,0.023-4.844,0.331
			c-1.789,0.326-2.993,1.204-3.618,2.637c-0.625,1.436-0.965,3.101-1.02,4.991c-0.057,1.894,0.037,3.932,0.274,6.118
			c0.238,2.187,0.325,4.194,0.264,6.021c-0.063,1.831-0.419,4.534-1.07,8.119c-0.654,3.585-1.564,7.167-2.737,10.739
			c-1.173,3.576-2.525,6.715-4.052,9.417c-1.53,2.704-3.193,4.152-4.993,4.349c-1.542,0.168-2.621-1.375-3.234-4.625
			c-0.615-3.252-1.098-7.102-1.449-11.553c-0.355-4.451-0.711-8.933-1.07-13.45c-0.362-4.512-0.925-7.9-1.689-10.16
			c-0.738-1.998-2.047-2.964-3.925-2.892c-1.879,0.075-3.806,0.608-5.778,1.604c0.14,1.286,0.177,3.43,0.113,6.429
			c-0.064,3.001-0.021,6.412,0.135,10.232c0.152,3.822,0.452,7.757,0.892,11.807c0.44,4.052,1.19,7.68,2.255,10.883
			c1.062,3.2,2.516,5.811,4.362,7.82c1.844,2.014,4.244,2.855,7.204,2.534c2.185-0.236,4.244-1.045,6.178-2.427
			c1.929-1.381,3.671-3.033,5.219-4.958s2.915-3.991,4.108-6.204c1.19-2.209,2.145-4.2,2.865-5.971
			c0.834,2.904,1.856,5.722,3.064,8.451c1.206,2.731,2.732,5.103,4.579,7.112c1.844,2.015,3.998,3.568,6.459,4.668
			c2.461,1.099,5.428,1.46,8.901,1.083c4.728-0.774,8.462-2.644,11.199-5.608c2.343-2.538,4.169-5.403,5.541-8.556
			c0.716,1.886,1.665,3.523,2.845,4.914c1.567,1.848,3.764,2.615,6.594,2.309c3.599-0.392,5.737-1.371,6.414-2.942
			c0.675-1.567,0.845-3.896,0.51-6.982c-0.209-1.929-0.525-4.529-0.944-7.803c-0.422-3.272-0.709-6.525-0.865-9.763
			c-0.155-3.234,0.023-6.083,0.536-8.549c0.514-2.461,1.605-3.784,3.278-3.966c1.027-0.111,2.009,0.532,2.941,1.926
			c0.932,1.396,1.869,3.147,2.815,5.255c0.943,2.113,1.849,4.455,2.713,7.024c0.866,2.574,1.744,4.984,2.64,7.228
			c0.894,2.245,1.818,4.164,2.771,5.75c0.953,1.589,2.016,2.387,3.186,2.386c0.787,0.047,1.584-0.072,2.401-0.357
			c0.814-0.283,1.508-0.779,2.082-1.494c0.215-0.414,0.51-1.877,0.89-4.391c0.377-2.511,0.792-5.582,1.245-9.211
			c0.45-3.627,1.007-7.492,1.667-11.599c0.658-4.103,1.447-7.931,2.364-11.479c0.915-3.546,1.991-6.525,3.226-8.938
			c1.232-2.408,2.623-3.7,4.166-3.868c0.643-0.069,1.202,1.173,1.674,3.723c0.473,2.553,0.897,5.563,1.274,9.035
			s0.727,7.015,1.055,10.619c0.325,3.608,0.601,6.443,0.825,8.499c0.28,2.573,0.752,5.123,1.417,7.652
			c0.665,2.534,1.652,4.734,2.962,6.606c1.308,1.878,3.026,3.315,5.152,4.32c2.126,1.008,4.796,1.334,8.012,0.985
			c2.957-0.321,5.746-1.602,8.366-3.837c2.587-2.209,4.807-4.859,6.667-7.941c0.204,1,0.429,1.986,0.694,2.946
			c0.75,2.719,1.909,4.999,3.475,6.845c1.568,1.848,3.763,2.616,6.594,2.309c3.599-0.391,5.738-1.371,6.414-2.942
			c0.675-1.567,0.846-3.896,0.51-6.982c-0.209-1.929-0.524-4.529-0.944-7.802c-0.423-3.273-0.709-6.526-0.866-9.764
			c-0.155-3.233,0.024-6.082,0.537-8.549c0.513-2.461,1.604-3.784,3.277-3.966c1.028-0.111,2.01,0.532,2.941,1.926
			c0.934,1.396,1.871,3.147,2.816,5.256c0.943,2.112,1.85,4.454,2.714,7.024c0.866,2.574,1.743,4.983,2.64,7.228
			c0.892,2.244,1.817,4.163,2.771,5.749c0.954,1.589,2.016,2.387,3.188,2.386c0.785,0.048,1.582-0.072,2.4-0.357
			c0.814-0.283,1.508-0.779,2.082-1.494c0.215-0.414,0.51-1.876,0.89-4.391c0.377-2.511,0.792-5.582,1.244-9.21
			c0.451-3.628,1.008-7.492,1.668-11.6c0.658-4.103,1.447-7.931,2.364-11.479c0.915-3.546,1.99-6.526,3.226-8.939
			c1.233-2.407,2.623-3.7,4.166-3.868c0.642-0.07,1.202,1.172,1.673,3.723c0.472,2.552,0.896,5.562,1.273,9.035
			c0.377,3.473,0.728,7.014,1.056,10.619c0.325,3.61,0.602,6.443,0.825,8.499c0.279,2.574,0.751,5.125,1.417,7.652
			c0.665,2.534,1.652,4.734,2.962,6.607c1.307,1.877,3.025,3.315,5.153,4.319c2.125,1.008,4.796,1.334,8.012,0.985
			c2.956-0.321,5.745-1.601,8.365-3.836c2.619-2.237,4.863-4.921,6.737-8.051c0.357-0.597,0.687-1.208,1.016-1.82
			c0.074,0.17,0.132,0.348,0.208,0.517c1.542,3.412,3.617,6.34,6.224,8.789c2.607,2.448,5.666,4.265,9.18,5.444
			c3.51,1.18,7.451,1.533,11.824,1.058c3.858-0.418,7.488-1.73,10.894-3.937c3.4-2.206,6.415-5.006,9.041-8.397
			c1.461-1.888,2.783-3.92,3.993-6.068c0.397,2.888,0.833,5.604,1.307,8.149c0.627,3.381,1.26,6.205,1.897,8.478
			c0.827,0.43,2.008,0.822,3.542,1.177c1.533,0.354,3.082,0.511,4.639,0.473c1.558-0.04,2.924-0.318,4.105-0.836
			c1.179-0.52,1.826-1.438,1.947-2.748c-1.442-7.261-2.159-14.761-2.152-22.504c0.004-7.741,0.803-15.083,2.391-22.022
			c0.345-1.599,0.925-3.449,1.739-5.557c0.812-2.103,1.666-4.115,2.563-6.036c0.896-1.917,1.76-3.573,2.585-4.964
			c0.824-1.388,1.486-2.177,1.987-2.363c0.758-0.209,1.295-0.044,1.617,0.509c0.319,0.551,0.495,1.281,0.529,2.188
			c0.032,0.907-0.023,1.889-0.168,2.944c-0.147,1.059-0.243,1.979-0.284,2.764c-0.089,0.399-0.193,0.932-0.315,1.596
			c-0.123,0.667-0.246,1.329-0.369,1.992c-0.123,0.666-0.123,1.281,0.006,1.853c0.127,0.572,0.468,1.023,1.024,1.353
			c1.525,0.877,3.057,0.906,4.597,0.085c1.537-0.816,2.55-1.965,3.041-3.451c0.604-1.628,0.867-3.38,0.795-5.259
			c-0.075-1.877-0.388-3.568-0.941-5.071C481.251,362.085,480.258,360.731,478.982,359.761z M405.451,399.756
			c-0.178-0.435-0.287-0.848-0.328-1.232c-0.182-1.671-0.271-3.973-0.262-6.901c0.006-2.929,0.21-5.844,0.611-8.752
			c0.398-2.903,1.063-5.483,1.99-7.729c0.928-2.249,2.275-3.597,4.049-4.051c1.656-0.308,2.645,0.981,2.959,3.875
			s0.15,6.199-0.486,9.908c-0.64,3.714-1.63,7.175-2.973,10.375c-1.344,3.204-2.785,4.89-4.33,5.056
			C406.037,400.375,405.628,400.193,405.451,399.756z"/>
		<path fill="#FFFFFF" d="M549.704,397.267c-1.007-0.282-2.025-0.366-3.053-0.256c-0.66,1.115-1.795,2.961-3.399,5.542
			c-1.607,2.583-3.472,5.191-5.592,7.829c-2.122,2.64-4.369,4.996-6.745,7.075c-2.379,2.079-4.659,3.237-6.844,3.475
			c-2.188,0.237-4.149-0.463-5.888-2.096c-1.739-1.635-3.312-3.813-4.709-6.527c-1.401-2.715-2.644-5.742-3.719-9.076
			c-1.079-3.336-1.958-6.632-2.635-9.882c-0.68-3.251-1.227-6.189-1.641-8.816c-0.415-2.625-0.699-4.647-0.853-6.063
			c-0.225-2.061-0.418-5.331-0.578-9.809c-0.163-4.478-0.182-9.46-0.062-14.949c0.117-5.486,0.447-11.158,0.982-17.016
			c0.535-5.86,1.349-11.226,2.448-16.103c1.097-4.876,2.572-8.946,4.431-12.209c1.857-3.265,4.199-5.052,7.03-5.359
			c2.827-0.306,5.184,0.413,7.065,2.16c1.879,1.748,3.336,4.064,4.363,6.943c1.028,2.883,1.743,6.153,2.142,9.818
			c0.397,3.666,0.496,7.266,0.294,10.801c-0.201,3.535-0.627,6.801-1.277,9.799c-0.651,2.999-1.407,5.325-2.268,6.98
			c0.111,1.029,0.671,1.683,1.677,1.964c1.007,0.282,1.959,0.374,2.859,0.275c2.186-0.238,3.832-1.846,4.941-4.831
			c1.105-2.981,1.877-6.352,2.317-10.107c0.437-3.756,0.625-7.418,0.563-10.991c-0.065-3.57-0.171-6.062-0.324-7.479
			c-0.727-6.686-3.069-12.092-7.03-16.216c-3.962-4.123-9.607-5.789-16.938-4.993c-5.015,0.544-9.217,2.596-12.604,6.15
			c-3.39,3.557-6.15,7.957-8.289,13.196c-2.139,5.244-3.695,11.072-4.668,17.487c-0.974,6.417-1.595,12.795-1.87,19.135
			c-0.275,6.343-0.299,12.328-0.072,17.964c0.229,5.635,0.538,10.255,0.929,13.854c0.53,4.89,1.477,10.057,2.838,15.5
			c1.361,5.449,3.371,10.368,6.033,14.765c2.66,4.396,6.101,7.892,10.327,10.491c4.225,2.597,9.425,3.563,15.598,2.894
			c2.827-0.308,5.828-1.429,9.004-3.358c3.173-1.933,6.069-4.329,8.685-7.188c2.617-2.86,4.727-5.906,6.327-9.138
			c1.602-3.23,2.24-6.325,1.919-9.286C551.282,398.332,550.71,397.546,549.704,397.267z"/>
		<path fill="#FFFFFF" d="M760.39,352.333c-0.224-2.055-0.582-4.457-1.075-7.202c-0.493-2.743-1.292-5.291-2.392-7.646
			c-1.104-2.35-2.551-4.309-4.346-5.871c-1.799-1.561-4.11-2.188-6.938-1.881c-6.302,0.685-10.354,4.121-12.153,10.297
			c-0.283-1.399-0.466-2.486-0.55-3.258c-0.082-0.772-0.159-1.476-0.23-2.121c-0.069-0.643-0.146-1.351-0.229-2.121
			c-0.083-0.772-0.202-1.863-0.356-3.28c-0.167-1.543-1.115-2.773-2.84-3.693c-1.729-0.916-3.538-1.403-5.43-1.46
			c-1.893-0.054-3.604,0.36-5.134,1.241c-1.532,0.884-2.185,2.354-1.961,4.41c0.921,8.486,1.854,17.69,2.803,27.604
			c0.21,2.209,0.446,4.438,0.667,6.655c-0.011,0.037-0.019,0.07-0.029,0.107c-0.902,3.093-2.072,6.08-3.516,8.97
			c-1.443,2.888-3.024,5.403-4.744,7.541c-1.719,2.138-3.536,3.377-5.451,3.715c-1.402,0.284-2.471-0.87-3.205-3.458
			c-0.738-2.584-1.384-5.832-1.937-9.744c-0.556-3.906-1.117-8.173-1.683-12.797c-0.569-4.622-1.389-8.889-2.464-12.809
			c-1.077-3.914-2.495-7.077-4.251-9.492c-1.76-2.411-4.054-3.463-6.882-3.156c-3.473,0.377-6.406,2.112-8.805,5.195
			c-2.396,3.087-4.383,6.684-5.951,10.795c-1.571,4.111-2.836,8.334-3.797,12.666c-0.962,4.334-1.746,7.899-2.351,10.697
			c-2.515-6.363-5.076-11.385-7.688-15.073c-2.613-3.683-5.461-5.359-8.548-5.024c-1.802,0.196-3.248,0.646-4.342,1.349
			c-1.096,0.706-2.176,2.159-3.236,4.354c-0.124-2.33-0.26-4.199-0.415-5.616c-0.153-1.413-0.355-3.279-0.607-5.595
			c-0.25-2.313-1.004-3.857-2.259-4.633c-1.256-0.772-3.041-1.037-5.356-0.785c-1.03,0.112-2.044,0.354-3.043,0.722
			c-1.003,0.371-1.852,0.918-2.555,1.644c-0.473,0.442-0.67,2.22-0.591,5.334c0.075,3.115,0.222,6.547,0.435,10.297
			c0.212,3.751,0.467,7.302,0.766,10.651c0.17,1.919,0.313,3.466,0.428,4.665c-0.7,2.137-1.598,4.371-2.703,6.707
			c-1.429,3.018-3.005,5.889-4.725,8.612c-1.723,2.725-3.458,4.996-5.214,6.813c-1.753,1.818-3.276,2.795-4.561,2.935
			c-2.314,0.252-4.042-1.285-5.184-4.61c-1.142-3.322-1.979-7.427-2.51-12.316c-0.53-4.886-0.918-9.952-1.161-15.195
			c-0.247-5.243-0.568-9.727-0.974-13.458c-0.293-2.7-1.187-4.326-2.676-4.881c-1.494-0.553-3.395-0.705-5.71-0.453
			c-2.574,0.279-4.746,1.231-6.521,2.854c-1.357-0.502-2.671-0.912-3.94-1.232c-1.272-0.315-2.613-0.398-4.028-0.245
			c-4.373,0.475-8.054,2.534-11.039,6.175c-2.989,3.644-5.357,7.9-7.104,12.774c-1.747,4.875-2.928,9.881-3.54,15.023
			c-0.613,5.141-0.725,9.515-0.333,13.113c0.446,4.117,1.792,7.515,4.035,10.199c2.243,2.683,5.68,3.773,10.31,3.271
			c2.7-0.293,5.138-1.208,7.313-2.746c2.175-1.535,4.089-3.371,5.745-5.504c1.653-2.131,3.028-4.458,4.12-6.985
			c1.094-2.523,1.962-4.995,2.611-7.408c0.68,2.658,1.389,5.314,2.134,7.967c0.742,2.649,1.779,5.011,3.11,7.078
			c1.329,2.069,3.063,3.668,5.206,4.802c2.139,1.133,4.945,1.513,8.418,1.136c3.343-0.363,6.537-1.815,9.579-4.358
			c3.041-2.541,5.675-5.526,7.907-8.959c1.206-1.857,2.262-3.781,3.188-5.761c0.207,1.017,0.434,2.02,0.704,2.996
			c0.751,2.719,1.91,4.999,3.477,6.845c1.566,1.848,3.764,2.616,6.593,2.309c3.6-0.392,5.738-1.371,6.415-2.942
			c0.675-1.566,0.845-3.896,0.511-6.983c-0.211-1.928-0.525-4.529-0.945-7.802c-0.422-3.273-0.708-6.525-0.865-9.763
			c-0.156-3.233,0.023-6.083,0.535-8.548c0.514-2.46,1.605-3.785,3.279-3.966c1.026-0.112,2.009,0.532,2.94,1.925
			c0.933,1.396,1.87,3.148,2.815,5.256c0.943,2.113,1.85,4.454,2.714,7.024c0.866,2.574,1.743,4.984,2.639,7.228
			c0.894,2.245,1.818,4.164,2.772,5.75c0.953,1.589,2.016,2.386,3.187,2.386c0.785,0.047,1.583-0.073,2.4-0.358
			c0.814-0.283,1.508-0.779,2.082-1.495c0.215-0.413,0.511-1.876,0.89-4.391c0.377-2.511,0.791-5.582,1.244-9.21
			c0.452-3.627,1.008-7.493,1.669-11.599c0.658-4.103,1.447-7.931,2.364-11.479c0.914-3.545,1.989-6.526,3.226-8.939
			c1.232-2.407,2.623-3.7,4.166-3.868c0.642-0.07,1.2,1.173,1.673,3.723c0.473,2.552,0.897,5.562,1.274,9.034
			c0.376,3.473,0.728,7.014,1.056,10.62c0.324,3.608,0.602,6.443,0.825,8.499c0.278,2.573,0.751,5.123,1.416,7.652
			c0.666,2.534,1.652,4.734,2.963,6.607c1.307,1.877,3.024,3.315,5.152,4.319c2.124,1.008,4.795,1.335,8.011,0.985
			c2.958-0.321,5.746-1.601,8.367-3.836c2.501-2.137,4.652-4.695,6.475-7.648c0.265,2.384,0.513,4.758,0.789,7.152
			c1.159,10.09,2.498,20.025,4.019,29.814c1.518,9.791,3.31,18.799,5.375,27.034c0.21,0.759,0.666,1.358,1.366,1.803
			c0.698,0.443,1.452,0.785,2.259,1.024c0.807,0.235,1.629,0.341,2.475,0.315c0.841-0.025,1.583-0.074,2.228-0.145
			c2.185-0.236,4.013-0.795,5.479-1.668c1.466-0.876,2.066-2.535,1.802-4.977c-0.545-5.016-1.181-9.664-1.905-13.943
			c-0.727-4.282-1.48-8.524-2.26-12.732c-0.783-4.21-1.575-8.484-2.368-12.821c-0.797-4.337-1.467-9.013-2.012-14.029
			c0.926,0.163,1.848,0.257,2.764,0.286c0.913,0.031,1.82-0.003,2.722-0.101c3.984-0.433,7.112-1.909,9.375-4.434
			c2.263-2.521,3.918-5.53,4.972-9.029c1.051-3.497,1.628-7.17,1.731-11.02C760.838,358.889,760.724,355.42,760.39,352.333z
			 M586.787,371.217c-0.401,2.313-0.976,4.803-1.725,7.476c-0.753,2.675-1.652,5.458-2.704,8.357c-1.052,2.901-2.2,5.521-3.44,7.858
			c-1.244,2.336-2.528,4.29-3.853,5.857c-1.327,1.572-2.634,2.425-3.919,2.564c-2.058,0.224-3.466-0.756-4.223-2.943
			c-0.758-2.186-1.027-4.975-0.811-8.365c0.218-3.39,0.815-7.148,1.801-11.275c0.983-4.123,2.162-7.944,3.538-11.459
			c1.374-3.517,2.838-6.494,4.397-8.932c1.555-2.437,3.04-3.732,4.457-3.886c1.669-0.181,2.979,0.195,3.929,1.127
			c0.945,0.935,1.616,2.031,2.015,3.281c0.396,1.253,0.712,2.968,0.948,5.144C587.323,367.174,587.186,368.904,586.787,371.217z
			 M750.658,366.075c-0.446,3.692-1.226,6.998-2.338,9.915c-1.116,2.92-2.766,4.498-4.951,4.735
			c-1.417,0.154-2.568-0.566-3.455-2.163c-0.89-1.593-1.578-3.439-2.065-5.534c-0.489-2.094-0.875-4.164-1.162-6.217
			c-0.29-2.049-0.466-3.395-0.537-4.04c-0.181-1.671-0.141-3.986,0.124-6.943c0.267-2.956,0.764-5.84,1.501-8.652
			c0.735-2.813,1.777-5.202,3.125-7.171c1.348-1.967,2.933-2.92,4.765-2.859c1.185,0.134,2.105,0.522,2.76,1.165
			c0.657,0.645,1.137,1.471,1.44,2.479c0.306,1.009,0.523,2.124,0.657,3.345c0.132,1.223,0.261,2.41,0.387,3.568
			c0.154,1.417,0.261,3.908,0.324,7.478C751.294,358.754,751.104,362.387,750.658,366.075z"/>
	</g>
	<g>
		<path fill="none" stroke="#FFFFFF" stroke-width="2" stroke-miterlimit="10" d="M697.878,302.471
			C657.024,178.234,540.084,88.527,402.175,88.527c-146.239,0-268.898,100.869-302.257,236.821"/>
		<path fill="none" stroke="#FFFFFF" stroke-width="2" stroke-miterlimit="10" d="M102.866,485.359
			c37.184,130.267,157.108,225.637,299.309,225.637c149.729,0,274.746-105.737,304.498-246.61"/>
	</g>
	<path fill="#FFFFFF" d="M678.977,435.217c-46.328-3.555-181.918,5.083-279.353,10.974c-97.431,5.892-259,23.494-269.951,29.349
		c-10.949,5.856,6.265,11.982,17.305,10.965c11.042-1.017,123.362-17.277,285.015-30.443
		c161.651-13.166,238.042-15.026,253.077-17.732C700.102,435.622,678.977,435.217,678.977,435.217z"/>
	<g>
		<path fill="#FFFFFF" d="M188.033,307.21l-0.866,2.219l-30.376-0.723l26.604,10.385l-1.182,3.028l-36.174-14.12l0.938-2.404
			l29.841,0.728l-26.142-10.204l1.182-3.028L188.033,307.21z"/>
		<path fill="#FFFFFF" d="M195.102,286.393c0.725,0.363,1.199,0.893,1.424,1.588c0.225,0.696,0.156,1.406-0.208,2.13l-4.872,9.715
			c-0.363,0.725-0.889,1.201-1.578,1.43c-0.688,0.229-1.395,0.161-2.119-0.203l-29.788-14.937c-0.725-0.363-1.201-0.889-1.43-1.578
			c-0.229-0.688-0.161-1.395,0.202-2.119l4.872-9.715c0.363-0.725,0.891-1.205,1.583-1.441c0.692-0.236,1.4-0.172,2.125,0.191
			L195.102,286.393z M193.29,289.342l-29.256-14.67l-4.26,8.495l29.255,14.67L193.29,289.342z"/>
		<path fill="#FFFFFF" d="M208.932,268.911l-1.912,3.077l-21.472-4.841l-0.341-0.767l3.248-5.227l-12.14-7.543l-4.675,7.524
			l30.39,18.884l-1.82,2.93l-32.983-20.495l6.862-11.043c0.428-0.688,0.995-1.115,1.701-1.28c0.706-0.165,1.404-0.034,2.092,0.394
			l12.519,7.779c1.588,0.987,1.718,2.548,0.391,4.684c-0.131,0.21-0.333,0.513-0.607,0.908c-0.274,0.395-0.468,0.683-0.582,0.865
			C196.036,266.126,202.479,267.511,208.932,268.911z"/>
		<path fill="#FFFFFF" d="M215.455,248.323c1.638,1.234,2.577,2.786,2.816,4.654c0.239,1.868-0.259,3.622-1.494,5.259l-5.346,7.094
			l-31.012-23.37l5.346-7.094c1.245-1.651,2.795-2.616,4.652-2.895c1.856-0.279,3.604,0.199,5.242,1.434L215.455,248.323z
			 M213.102,250.869l-19.281-14.53c-1.017-0.766-2.081-1.065-3.191-0.898c-1.11,0.168-2.049,0.761-2.815,1.778l-2.882,3.824
			l26.138,19.696l2.763-3.666c0.806-1.07,1.153-2.17,1.042-3.3C214.763,252.644,214.172,251.675,213.102,250.869z"/>
		<path fill="#FFFFFF" d="M227.039,245.653l-2.252,2.612l-29.405-25.362l2.252-2.612L227.039,245.653z"/>
		<path fill="#FFFFFF" d="M239.813,228.17c0.578,0.568,0.865,1.221,0.859,1.957c-0.005,0.737-0.292,1.395-0.859,1.973l-7.007,7.133
			c-0.568,0.579-1.215,0.871-1.94,0.877c-0.725,0.007-1.376-0.274-1.955-0.842l-23.773-23.352c-0.578-0.568-0.871-1.214-0.877-1.94
			c-0.006-0.725,0.274-1.377,0.842-1.955l7.007-7.134c0.568-0.578,1.22-0.876,1.957-0.895c0.737-0.018,1.395,0.257,1.973,0.825
			l6.443,6.329l-2.435,2.479l-6.231-6.121l-6.051,6.16l23.348,22.934l6.051-6.16l-6.815-6.694l2.434-2.479L239.813,228.17z"/>
		<path fill="#FFFFFF" d="M263.38,208.447c0.5,0.638,0.701,1.322,0.601,2.052c-0.1,0.73-0.469,1.346-1.106,1.846l-7.867,6.173
			c-0.638,0.5-1.317,0.708-2.037,0.62c-0.72-0.086-1.33-0.449-1.831-1.087l-20.57-26.216c-0.5-0.637-0.707-1.316-0.621-2.037
			c0.087-0.719,0.449-1.33,1.087-1.83l7.867-6.173c0.637-0.5,1.323-0.712,2.056-0.636c0.733,0.077,1.35,0.434,1.85,1.072
			l5.576,7.105l-2.733,2.145l-5.392-6.872l-6.793,5.331l20.203,25.748l6.793-5.33l-5.897-7.516l2.733-2.145L263.38,208.447z"/>
		<path fill="#FFFFFF" d="M282.964,198.728l-2.895,1.876l-10.147-15.659l-7.851,5.087l10.147,15.659l-2.894,1.876l-21.118-32.588
			l2.895-1.875l9.284,14.326l7.85-5.087l-9.284-14.326l2.895-1.876L282.964,198.728z"/>
		<path fill="#FFFFFF" d="M291.063,194.241l-3.014,1.678l-18.887-33.929l3.014-1.677L291.063,194.241z"/>
		<path fill="#FFFFFF" d="M310.674,184.53l-2.154,1.017l-21.574-21.396l12.196,25.825l-2.939,1.388l-16.583-35.113l2.333-1.102
			l21.183,21.031l-11.984-25.375l2.939-1.388L310.674,184.53z"/>
		<path fill="#FFFFFF" d="M327.686,178.017l-11.946,4.466l-13.597-36.374l11.807-4.414l1.068,2.859l-8.576,3.206l5.074,13.573
			l7.809-2.919l1.086,2.905l-7.809,2.919l5.3,14.178l8.715-3.258L327.686,178.017z"/>
		<path fill="#FFFFFF" d="M345.91,169.761c0.221,0.78,0.159,1.485-0.187,2.116s-0.908,1.057-1.688,1.278l-9.406,2.666
			c-0.78,0.221-1.49,0.156-2.131-0.196c-0.641-0.351-1.072-0.917-1.293-1.697l-2.686-9.477l3.318-0.94l2.604,9.191l8.069-2.287
			l-2.523-8.904l-13.844-9.539c-0.959-0.657-1.586-1.502-1.879-2.537l-2.145-7.567c-0.221-0.78-0.15-1.487,0.211-2.123
			c0.362-0.635,0.932-1.063,1.712-1.285l9.406-2.666c0.78-0.221,1.482-0.153,2.108,0.202c0.625,0.356,1.048,0.924,1.269,1.704
			l2.462,8.689l-3.318,0.94l-2.381-8.403l-8.069,2.286l2.232,7.878l13.892,9.525c0.919,0.634,1.525,1.468,1.818,2.502
			L345.91,169.761z"/>
		<path fill="#FFFFFF" d="M364.425,168.756l-12.513,2.466l-7.509-38.099l12.367-2.438l0.59,2.995l-8.983,1.771l2.802,14.217
			l8.18-1.612l0.6,3.043l-8.18,1.612l2.927,14.85l9.129-1.799L364.425,168.756z"/>
		<path fill="#FFFFFF" d="M393.835,162.945c0.059,0.809-0.158,1.488-0.649,2.037c-0.491,0.55-1.141,0.854-1.949,0.912l-9.974,0.72
			c-0.808,0.059-1.487-0.149-2.035-0.624s-0.852-1.116-0.91-1.924l-2.4-33.237c-0.058-0.809,0.15-1.487,0.625-2.036
			c0.474-0.548,1.116-0.852,1.924-0.91l9.974-0.72c0.808-0.058,1.495,0.149,2.06,0.623c0.564,0.474,0.876,1.114,0.935,1.922
			l0.651,9.009l-3.465,0.25l-0.629-8.711l-8.613,0.622l2.357,32.643l8.613-0.622l-0.688-9.528l3.465-0.25L393.835,162.945z"/>
		<path fill="#FFFFFF" d="M415.484,165.817l-3.449-0.059l0.318-18.656L403,146.942l-0.317,18.656l-3.449-0.059l0.661-38.826
			l3.449,0.059l-0.291,17.069l9.354,0.159l0.29-17.069l3.448,0.059L415.484,165.817z"/>
		<path fill="#FFFFFF" d="M437.348,167.937l-3.603-0.388l-4.956-21.446l0.543-0.64l6.119,0.658l1.527-14.21l-8.807-0.947
			l-3.826,35.575l-3.429-0.369l4.151-38.609l12.928,1.39c0.806,0.086,1.437,0.413,1.892,0.977c0.454,0.565,0.639,1.25,0.552,2.056
			l-1.575,14.654c-0.2,1.859-1.55,2.653-4.05,2.384c-0.247-0.026-0.607-0.078-1.082-0.154c-0.475-0.076-0.818-0.125-1.032-0.148
			C434.26,155.11,435.809,161.516,437.348,167.937z"/>
		<path fill="#FFFFFF" d="M445.431,169.418l-3.397-0.592l6.667-38.255l3.397,0.592L445.431,169.418z"/>
		<path fill="#FFFFFF" d="M466.604,171.317c-0.19,0.788-0.591,1.372-1.202,1.751c-0.611,0.38-1.311,0.475-2.098,0.284l-9.502-2.299
			c-0.788-0.191-1.375-0.596-1.761-1.217s-0.483-1.326-0.293-2.113l2.316-9.574l3.353,0.811l-2.247,9.285l8.151,1.973l2.177-8.996
			l-7.372-15.11c-0.514-1.043-0.644-2.087-0.391-3.132l1.85-7.645c0.19-0.788,0.6-1.37,1.227-1.746
			c0.627-0.375,1.335-0.469,2.122-0.278l9.502,2.299c0.788,0.19,1.367,0.595,1.736,1.211c0.37,0.617,0.46,1.32,0.27,2.107
			l-2.124,8.778l-3.353-0.811l2.054-8.489l-8.151-1.972l-1.926,7.958l7.421,15.122c0.488,1.003,0.607,2.027,0.354,3.072
			L466.604,171.317z"/>
		<path fill="#FFFFFF" d="M494.994,145.732l-5.704-1.875l-11.171,33.991l-3.276-1.077l11.171-33.991l-5.752-1.891l0.953-2.899
			l14.732,4.842L494.994,145.732z"/>
		<path fill="#FFFFFF" d="M490.481,182.411l-3.21-1.262l14.207-36.14l3.21,1.262L490.481,182.411z"/>
		<path fill="#FFFFFF" d="M510.177,191.231l-3.102-1.451l2.423-8.399l-6.99-3.27l-4.895,7.243l-3.012-1.409l0.042-0.09l22.726-32.24
			l3.079,1.44L510.177,191.231z M510.387,178.427l5.837-20.499l-12.018,17.607L510.387,178.427z"/>
		<path fill="#FFFFFF" d="M527.44,201.071l-2.061-1.194l5.347-29.91l-14.32,24.709l-2.813-1.63l19.471-33.597l2.233,1.294
			l-5.27,29.381l14.071-24.28l2.813,1.63L527.44,201.071z"/>
		<path fill="#FFFFFF" d="M553.875,216.736c-0.495,0.642-1.108,1.005-1.84,1.088c-0.733,0.083-1.42-0.122-2.063-0.616l-7.924-6.099
			c-0.643-0.495-1.011-1.102-1.104-1.82c-0.094-0.719,0.107-1.4,0.602-2.042l20.325-26.407c0.494-0.642,1.101-1.01,1.82-1.104
			c0.719-0.093,1.399,0.107,2.042,0.601l7.924,6.099c0.643,0.494,1.017,1.106,1.124,1.835c0.106,0.729-0.088,1.415-0.582,2.057
			l-5.509,7.158l-2.753-2.119l5.327-6.921l-6.843-5.267l-19.961,25.936l6.843,5.267l5.826-7.57l2.753,2.119L553.875,216.736z"/>
		<path fill="#FFFFFF" d="M568.133,233.313l-2.533-2.341l12.665-13.702l-6.869-6.35l-12.665,13.702l-2.533-2.341l26.358-28.516
			l2.532,2.341l-11.587,12.536l6.869,6.35l11.588-12.536l2.532,2.341L568.133,233.313z"/>
		<path fill="#FFFFFF" d="M584.748,247.284c-0.603,0.542-1.269,0.792-1.998,0.748s-1.366-0.367-1.908-0.97l-7.073-7.854
			c-0.543-0.602-0.795-1.266-0.757-1.99c0.037-0.724,0.357-1.357,0.96-1.9l26.809-24.143l2.308,2.563l-26.587,23.944l6.16,6.84
			l26.588-23.944l2.308,2.563L584.748,247.284z"/>
		<path fill="#FFFFFF" d="M596.036,266.538l-2.173-2.899l12.311-18.247l0.839-0.039l3.689,4.924l11.438-8.57l-5.312-7.089
			l-28.634,21.456l-2.068-2.76l31.076-23.285l7.797,10.405c0.485,0.648,0.677,1.332,0.574,2.05s-0.479,1.32-1.127,1.806
			l-11.795,8.838c-1.496,1.121-2.998,0.675-4.506-1.337c-0.148-0.199-0.356-0.498-0.625-0.896c-0.268-0.399-0.466-0.685-0.595-0.856
			C603.313,255.535,599.684,261.035,596.036,266.538z"/>
		<path fill="#FFFFFF" d="M608.985,281.947c-0.689,0.427-1.392,0.55-2.106,0.37c-0.715-0.18-1.285-0.615-1.711-1.304l-5.264-8.502
			c-0.427-0.689-0.557-1.387-0.391-2.093c0.166-0.706,0.594-1.272,1.283-1.699l28.334-17.54c0.688-0.426,1.387-0.557,2.093-0.391
			c0.705,0.166,1.271,0.594,1.698,1.283l5.264,8.502c0.426,0.689,0.561,1.394,0.403,2.114c-0.157,0.72-0.581,1.293-1.27,1.72
			l-7.68,4.754l-1.828-2.954l7.426-4.597l-4.545-7.342l-27.827,17.226l4.545,7.342l8.122-5.028l1.828,2.954L608.985,281.947z"/>
		<path fill="#FFFFFF" d="M616.465,302.484l-1.542-3.085l16.689-8.343l-4.183-8.367l-16.69,8.344l-1.542-3.085l34.733-17.364
			l1.542,3.085l-15.269,7.633l4.183,8.367l15.27-7.634l1.542,3.085L616.465,302.484z"/>
	</g>
	<g>
		<path fill="#FFFFFF" d="M164.336,536.821l-2.735-5.178l15.401-8.137l-3.674-6.955l-15.401,8.138l-2.712-5.134l34.334-18.141
			l2.712,5.134l-14.151,7.477l3.675,6.954l14.15-7.477l2.735,5.178L164.336,536.821z"/>
		<path fill="#FFFFFF" d="M178.998,554.154c-1.736,1.123-3.184,0.788-4.343-1.004l-5.323-8.229c-1.159-1.791-0.87-3.248,0.866-4.372
			l15.833-10.241c1.736-1.123,3.184-0.789,4.343,1.003l5.323,8.229c1.159,1.792,0.87,3.249-0.866,4.372l-7.729,5l-2.162-0.464
			l-5-7.729l-5.896,3.813l2.897,4.479l3.5-2.264l2.951,4.563L178.998,554.154z M185.943,543.19l5.042-3.262l-2.897-4.479
			l-5.042,3.262L185.943,543.19z"/>
		<path fill="#FFFFFF" d="M189.976,573.926l-3.448-4.485l0.688-0.529c-2.876-2.629-4.456-4.128-4.738-4.495
			c-0.867-1.128-1.217-2.268-1.048-3.419c0.168-1.152,0.823-2.166,1.964-3.043l12.295-9.451c1.613-1.24,3.178-1.524,4.695-0.854
			c1.117,0.477,2.331,1.567,3.642,3.272c0.292,0.38,0.703,0.941,1.231,1.683c0.528,0.741,0.908,1.263,1.14,1.564l10.918-8.392
			l3.448,4.485L189.976,573.926z M190.403,566.462l12.237-9.405l-2.132-2.774c-0.766-0.997-1.647-1.111-2.644-0.346l-9.502,7.304
			c-0.971,0.746-1.093,1.591-0.367,2.535C188.166,563.998,188.969,564.894,190.403,566.462z"/>
		<path fill="#FFFFFF" d="M212.985,599.104l-3.875-4.088l14.75-13.979l-3.742-3.805l-14.678,13.911l-3.892-4.106l14.75-13.979
			l-3.742-3.804l-14.678,13.91l-3.909-4.124l18.19-17.239l3.908,4.125l-0.666,0.631c1.066,0.813,2.127,1.619,3.182,2.42
			c1.284,0.994,2.29,1.875,3.018,2.644c0.899,0.948,1.209,1.816,0.931,2.605c1.111,0.86,2.229,1.715,3.354,2.564
			c1.479,1.128,2.554,2.046,3.226,2.754c1.422,1.501,1.396,2.951-0.082,4.351L212.985,599.104z"/>
		<path fill="#FFFFFF" d="M230.087,613.851l-4.121-3.542l0.566-0.658c-1.108-0.69-2.216-1.382-3.324-2.072
			c-1.441-0.911-2.494-1.653-3.159-2.225c-1.568-1.348-1.689-2.793-0.362-4.336l5.887-6.85c1.348-1.567,2.831-1.656,4.449-0.266
			l5.814,4.998l3.752-4.365l-4.121-3.542l-2.329,2.709l-3.895-3.348l3.057-3.557c1.348-1.567,2.831-1.656,4.449-0.266l7.282,6.26
			c1.593,1.369,1.716,2.838,0.368,4.406L230.087,613.851z M228.948,606.916l4.383-5.099l-4.121-3.542l-4.513,5.249L228.948,606.916z
			"/>
		<path fill="#FFFFFF" d="M256.035,615.036l-4.542-3.331l3.389-4.622l-3.68-2.576l-11.959,16.308l-4.582-3.36l14.82-20.209
			l4.582,3.36l-0.543,0.74c1.074,0.521,2.142,1.038,3.203,1.549c1.28,0.632,2.301,1.227,3.061,1.783
			c1.667,1.224,1.899,2.655,0.696,4.296L256.035,615.036z"/>
		<path fill="#FFFFFF" d="M265.707,638.392l-5.138-3.202l1.843-12.388l-6.076,9.75l-4.822-3.005l20.539-32.956l4.822,3.006
			l-12.336,19.794l8.864-5.731l5.033,3.136l-0.052,0.085l-10.93,6.607L265.707,638.392z"/>
		<path fill="#FFFFFF" d="M284.783,644.954c-0.955,1.834-2.365,2.266-4.228,1.295l-8.473-4.413
			c-1.863-0.971-2.317-2.372-1.362-4.206l2.487-4.775l4.819,2.51l-1.949,3.741l4.423,2.304l1.834-3.521l-5.352-8.579
			c-0.699-1.129-0.785-2.199-0.258-3.211l2.705-5.194c0.956-1.833,2.379-2.258,4.272-1.271l8.384,4.367
			c1.863,0.97,2.317,2.372,1.362,4.206l-2.327,4.468l-4.775-2.487l1.788-3.434l-4.423-2.304l-1.673,3.213l5.353,8.523
			c0.721,1.121,0.807,2.211,0.257,3.267L284.783,644.954z"/>
		<path fill="#FFFFFF" d="M298.283,654.343l-5.772-2.529c-1.924-0.844-2.471-2.212-1.641-4.106l6.873-15.681l-2.454-1.075
			l1.942-4.432l2.455,1.075l2.729-6.227l5.182,2.271l-2.729,6.227l3.34,1.464l-1.942,4.432l-3.341-1.464l-6.175,14.09l3.477,1.523
			L298.283,654.343z"/>
		<path fill="#FFFFFF" d="M319.248,658.822c-0.698,1.946-2.036,2.565-4.013,1.856l-9.577-3.432c-2.009-0.72-2.665-2.053-1.967-3.999
			l6.361-17.753c0.698-1.946,2.051-2.56,4.06-1.84l9.577,3.432c1.978,0.709,2.618,2.036,1.92,3.982L319.248,658.822z
			 M314.56,655.429l5.265-14.692l-5.069-1.816l-5.265,14.692L314.56,655.429z"/>
		<path fill="#FFFFFF" d="M341.388,662.991c-0.526,1.966-1.597,3.151-3.212,3.559c-1.172,0.286-2.797,0.15-4.875-0.405
			c-0.479-0.128-1.15-0.325-2.013-0.59s-1.485-0.448-1.869-0.551l-2.366,8.845l-5.489-1.468l8.842-33.055l5.489,1.468l-0.237,0.887
			c1.33,0.15,2.661,0.293,3.995,0.427c1.683,0.177,2.995,0.391,3.938,0.643c1.998,0.534,2.733,1.784,2.208,3.75L341.388,662.991z
			 M336.278,660.006l3.546-13.255l-5.179-1.282l-4.007,14.98l3.404,0.911C335.208,661.672,335.954,661.221,336.278,660.006z"/>
		<path fill="#FFFFFF" d="M363.19,667.156c-0.362,2.002-1.331,3.273-2.907,3.812c-1.145,0.382-2.775,0.381-4.892-0.001
			c-0.488-0.088-1.173-0.229-2.054-0.422c-0.882-0.192-1.518-0.324-1.908-0.395l-1.627,9.01l-5.592-1.01l6.083-33.672l5.591,1.01
			l-0.163,0.903c1.337,0.04,2.676,0.072,4.017,0.096c1.691,0.037,3.017,0.142,3.978,0.315c2.035,0.367,2.871,1.552,2.509,3.555
			L363.19,667.156z M357.853,664.604l2.439-13.503l-5.267-0.851l-2.757,15.261l3.467,0.627
			C356.923,666.352,357.629,665.841,357.853,664.604z"/>
		<path fill="#FFFFFF" d="M384.576,671.402c-0.201,2.058-1.363,2.982-3.487,2.775l-9.754-0.951c-2.124-0.208-3.085-1.34-2.885-3.398
			l1.831-18.769c0.201-2.058,1.363-2.983,3.487-2.775l9.754,0.951c2.124,0.207,3.085,1.34,2.885,3.398l-0.894,9.161l-1.708,1.404
			l-9.162-0.894l-0.682,6.988l5.31,0.519l0.405-4.149l5.409,0.528L384.576,671.402z M380.313,659.144l0.583-5.976l-5.31-0.519
			l-0.583,5.977L380.313,659.144z"/>
		<path fill="#FFFFFF" d="M406.934,675.117l-5.706-0.096l0.342-20.319l-5.336,0.01l-0.34,20.22l-5.682-0.096l0.422-25.058
			l5.681,0.096l-0.016,0.918c1.327-0.192,2.645-0.377,3.955-0.554c1.625-0.237,2.958-0.348,4.001-0.33
			c2.066,0.035,3.084,1.069,3.049,3.104L406.934,675.117z"/>
		<path fill="#FFFFFF" d="M418.093,668.683l-2.484,10.087l-3.769,0.157l0.303-9.996L418.093,668.683z"/>
		<path fill="#FFFFFF" d="M448.795,643.239c0.178,1.212-0.043,2.614-0.662,4.21l-7.854,19.984l11.76-1.724l0.737,5.033l-18.634,2.73
			l-0.521-3.56l9.658-24.788l-1.04-7.095l-6.997,1.025l1.048,7.145l-5.622,0.823l-1.253-8.543c-0.34-2.324,0.659-3.657,3-4.001
			l11.269-1.651c2.341-0.343,3.682,0.647,4.021,2.972L448.795,643.239z"/>
		<path fill="#FFFFFF" d="M476.489,657.795l-2.871,0.691l1.713,7.116l-5.379,1.295l-1.714-7.116l-12.399,2.985l-0.807-3.354
			l2.815-29.543l5.741-1.382c0.027,0.112,0.045,0.185,0.053,0.217l-2.638,27.739l6.079-1.464l-2.735-11.362l5.38-1.295l2.735,11.362
			l2.87-0.691L476.489,657.795z"/>
		<path fill="#FFFFFF" d="M500.32,644.251l-11.096,4.12l-1.805-4.861l11.095-4.12L500.32,644.251z"/>
		<path fill="#FFFFFF" d="M535.851,637.187c1.082,2.104,0.586,3.688-1.488,4.756l-10.591,5.447c-2.045,1.052-3.608,0.526-4.69-1.577
			l-4.097-7.966l5.074-2.61l3.439,6.686l6.642-3.416l-4.461-8.672l-8.568-1.089l-0.556-1.081l4.131-7.538l-3.745-7.281l-6.642,3.416
			l3.234,6.288l-5.075,2.61l-3.882-7.546c-1.089-2.118-0.59-3.715,1.499-4.789l10.525-5.414c2.074-1.066,3.656-0.541,4.745,1.577
			l4.177,8.12c0.704,1.368,0.675,2.723-0.087,4.063l-2.133,3.72l4.288,0.362c1.474,0.116,2.566,0.865,3.277,2.248L535.851,637.187z"
			/>
		<path fill="#FFFFFF" d="M548.721,633.532l-4.879,2.959l-14.205-23.422l-1.909,1.157l-0.399-0.657l-2.966-10.68l4.223-2.561
			L548.721,633.532z"/>
		<path fill="#FFFFFF" d="M575.324,610.265c1.439,1.878,1.213,3.54-0.678,4.989l-8.746,6.7c-1.852,1.418-3.496,1.188-4.935-0.689
			l-5.81-7.583l4.589-3.517l4.935,6.441l5.161-3.954l-20.583-26.866l4.609-3.531L575.324,610.265z"/>
		<path fill="#FFFFFF" d="M594.596,597.847l-4.185,3.807l-0.585-0.643c-0.821,1.039-1.649,2.083-2.484,3.132
			c-1.02,1.264-1.915,2.246-2.687,2.947c-1.529,1.392-2.989,1.322-4.381-0.208l-14.876-16.354l4.167-3.79l13.69,15.052l3.899-3.715
			l-13.607-14.96l4.186-3.807L594.596,597.847z"/>
		<path fill="#FFFFFF" d="M602.45,589.789l-3.896,3.999l-27.819-27.093l3.896-3.999L602.45,589.789z"/>
		<path fill="#FFFFFF" d="M598.47,556.576l14.591,20.94l5.589,8.024l-3.801,4.389l-5.366-8.093l-22.952-11.476l3.817-4.407
			l14.615,8.291l-10.294-13.28L598.47,556.576z"/>
		<path fill="#FFFFFF" d="M614.393,529.31c1.019,0.681,1.911,1.785,2.68,3.313l9.563,19.226l6.605-9.88l4.229,2.826l-10.467,15.657
			l-2.991-2l-11.916-23.785l-5.962-3.984l-3.93,5.879l6.003,4.013l-3.158,4.724l-7.179-4.799c-1.952-1.306-2.271-2.941-0.957-4.908
			l6.329-9.468c1.314-1.967,2.949-2.297,4.901-0.992L614.393,529.31z"/>
		<path fill="#FFFFFF" d="M646.734,520.944c2.079,1.129,2.561,2.719,1.447,4.768l-5.782,10.639
			c-1.098,2.021-2.686,2.466-4.765,1.337l-27.861-15.143c-2.093-1.138-2.579-2.738-1.457-4.802l5.746-10.573
			c1.114-2.05,2.718-2.506,4.811-1.368L646.734,520.944z M642.757,525.249l-25.354-13.779l-3.661,6.736l25.354,13.779
			L642.757,525.249z"/>
		<path fill="#FFFFFF" d="M655.377,510.526l-2.362,5.194l-24.936-11.342l-0.924,2.032l-0.7-0.318l-8.469-7.15l2.044-4.495
			L655.377,510.526z"/>
		<path fill="#FFFFFF" d="M631.601,475.105l29.716,20.735l-2.095,5.574l-28.618-20.058l-2.609,6.944l5.318,1.999l-1.973,5.249
			l-9.987-3.753l6.765-18.001L631.601,475.105z"/>
	</g>
	<g>
		<path fill="none" stroke="#FFFFFF" stroke-width="2" stroke-miterlimit="10" d="M598.73,327.097
			c-30.51-82.352-111.217-139.635-203.762-136.201c-98.133,3.643-177.93,74.386-196.93,166.448"/>
		<path fill="none" stroke="#FFFFFF" stroke-width="2" stroke-miterlimit="10" d="M204.002,464.643
			c28.196,86.49,111.046,147.501,206.471,143.958c100.478-3.727,181.734-77.797,198.189-173.07"/>
	</g>
</g>
</svg>
