<?xml version="1.0" encoding="utf-8"?>
<svg version="1.2" baseProfile="tiny" xmlns="http://www.w3.org/2000/svg" xmlns:xlink="http://www.w3.org/1999/xlink" x="0px"
	 y="0px" width="800px" height="800px" viewBox="0 0 800 800" xml:space="preserve">
<g id="Logo_18_SVG">
	<g>
		<path fill="#FFFFFF" d="M125.284,418.293c-3.447-2.368-7.456-3.957-12.033-4.766c-4.577-0.808-9.29-1.08-14.141-0.815
			c-4.85,0.264-8.885,0.571-12.098,0.921c-2.96,0.321-6.113,0.632-9.463,0.93c-3.353,0.3-6.488,0.186-9.405-0.34
			c-2.92-0.525-5.462-1.772-7.628-3.745c-2.165-1.971-3.478-5.072-3.938-9.303c-0.292-2.693,0.205-5.896,1.494-9.602
			c1.288-3.708,3.083-7.565,5.379-11.579c2.297-4.012,4.986-8,8.07-11.967c3.082-3.968,6.272-7.525,9.575-10.674
			c3.3-3.145,6.594-5.775,9.879-7.882c3.284-2.106,6.21-3.303,8.784-3.583c1.669-0.181,3.163,0.08,4.476,0.782
			c1.312,0.707,2.428,1.688,3.347,2.955c0.918,1.266,1.657,2.684,2.217,4.249c0.562,1.567,0.918,3.056,1.072,4.469
			c0.335,3.087,0.039,6.958-0.886,11.612c-0.928,4.656-2.396,9.109-4.405,13.359c-2.011,4.253-4.553,7.813-7.622,10.685
			c-3.074,2.87-6.578,4.13-10.52,3.777c0.295,1.529,0.872,2.636,1.728,3.326c0.855,0.688,1.717,1.148,2.589,1.377
			c0.87,0.232,1.722,0.302,2.56,0.211c0.835-0.091,1.447-0.157,1.833-0.199c2.57-0.279,5.027-1.327,7.368-3.144
			c2.339-1.815,4.535-4.069,6.583-6.766c2.05-2.692,3.871-5.69,5.465-8.986c1.593-3.295,2.922-6.625,3.989-9.996
			c1.064-3.366,1.854-6.576,2.37-9.625c0.514-3.048,0.653-5.664,0.416-7.853c-0.656-6.043-3.161-10.521-7.508-13.433
			c-4.351-2.91-9.418-4.052-15.205-3.423c-3.858,0.419-8.004,1.781-12.438,4.083c-4.434,2.306-8.902,5.196-13.403,8.677
			c-4.502,3.482-8.824,7.431-12.962,11.849c-4.14,4.419-7.744,8.974-10.811,13.665c-3.071,4.694-5.427,9.341-7.074,13.943
			c-1.647,4.604-2.262,8.832-1.843,12.691c0.628,5.786,2.806,9.976,6.536,12.563c3.728,2.588,8.102,4.228,13.123,4.918
			c5.019,0.692,10.233,0.775,15.642,0.253c5.408-0.521,10.041-0.992,13.898-1.411c2.186-0.238,4.74-0.385,7.661-0.442
			c2.922-0.056,5.745,0.19,8.473,0.738c2.725,0.553,5.086,1.63,7.084,3.233c1.995,1.606,3.161,3.949,3.496,7.036
			c0.266,2.444-0.177,4.966-1.326,7.561c-1.151,2.598-2.676,5.009-4.582,7.23c-1.905,2.226-4.028,4.243-6.368,6.06
			c-2.341,1.814-4.577,3.102-6.706,3.851c-0.771-1.087-1.984-2.094-3.646-3.021c-1.661-0.923-3.321-1.522-4.977-1.802
			c-1.659-0.273-3.139-0.146-4.447,0.387c-1.309,0.531-1.938,1.645-1.883,3.326c0.034,3.901,1.411,6.419,4.138,7.554
			c2.726,1.138,5.951,1.5,9.683,1.095c3.858-0.418,7.888-1.641,12.093-3.664c4.203-2.023,8.023-4.591,11.459-7.709
			c3.434-3.115,6.206-6.648,8.314-10.6s2.931-8.059,2.468-12.321C130.711,424.236,128.729,420.663,125.284,418.293z"/>
		<path fill="#FFFFFF" d="M479.982,358.761c-1.275-0.966-2.707-1.56-4.292-1.777c-1.585-0.219-3.198-0.073-4.833,0.428
			c-1.638,0.503-3.037,1.402-4.196,2.7c-2.449,2.607-4.386,5.746-5.809,9.413c-1.425,3.668-2.475,7.167-3.153,10.491
			c-0.196-1.799-0.395-3.632-0.598-5.497c-0.202-1.863-0.53-3.682-0.982-5.456c-0.441-1.643-1.265-2.659-2.479-3.049
			c-1.214-0.386-2.599-0.562-4.155-0.524c-1.03,0.112-2.359,0.451-3.988,1.019c-1.632,0.566-2.497,1.573-2.601,3.015
			c0.076,4.286,0.337,8.486,0.783,12.601c0.447,4.117,0.904,8.328,1.372,12.635c0.045,0.412,0.091,0.805,0.136,1.213
			c-1.325,3.473-2.99,6.954-5.017,10.443c-2.139,3.68-4.677,6.98-7.61,9.901c-2.938,2.923-6.207,4.576-9.805,4.967
			c-2.444,0.266-4.548-0.228-6.31-1.481c-1.764-1.256-3.299-2.799-4.603-4.631c-1.304-1.829-2.328-3.757-3.066-5.782
			c-0.74-2.022-1.254-3.743-1.536-5.157l0.964-0.105c2.701-0.293,5.122-1.366,7.262-3.228c2.141-1.857,3.946-4.103,5.416-6.734
			c1.473-2.631,2.543-5.353,3.214-8.157c0.672-2.806,0.881-5.365,0.629-7.681c-0.209-1.928-0.637-3.767-1.282-5.521
			c-0.647-1.75-1.53-3.313-2.656-4.687c-1.123-1.373-2.507-2.427-4.148-3.162c-1.641-0.729-3.492-0.986-5.549-0.763
			c-4.115,0.447-7.447,2.112-9.996,4.989c-2.551,2.882-4.494,6.247-5.832,10.099c-1.338,3.854-2.168,7.882-2.494,12.079
			c-0.204,2.642-0.262,5.036-0.206,7.236c-0.021,0.071-0.038,0.137-0.058,0.209c-0.903,3.093-2.072,6.08-3.516,8.97
			c-1.442,2.89-3.023,5.403-4.744,7.541c-1.719,2.139-3.536,3.378-5.452,3.715c-1.402,0.283-2.469-0.869-3.206-3.458
			c-0.738-2.584-1.382-5.833-1.937-9.743c-0.555-3.906-1.116-8.173-1.682-12.797c-0.568-4.623-1.389-8.89-2.464-12.81
			c-1.078-3.914-2.495-7.078-4.251-9.491c-1.759-2.411-4.054-3.463-6.881-3.157c-3.473,0.377-6.407,2.111-8.804,5.195
			c-2.397,3.088-4.383,6.684-5.952,10.795c-1.573,4.111-2.837,8.334-3.796,12.667c-0.963,4.334-1.748,7.899-2.353,10.696
			c-2.514-6.362-5.075-11.385-7.687-15.072c-2.614-3.683-5.46-5.36-8.547-5.024c-1.802,0.196-3.248,0.646-4.342,1.349
			c-1.094,0.706-2.175,2.159-3.236,4.354c-0.124-2.33-0.26-4.199-0.414-5.616c-0.153-1.413-0.357-3.279-0.607-5.595
			c-0.251-2.313-1.005-3.857-2.26-4.633c-1.255-0.772-3.04-1.037-5.354-0.785c-1.032,0.112-2.044,0.354-3.045,0.721
			c-1.002,0.371-1.852,0.919-2.554,1.645c-0.474,0.442-0.67,2.219-0.592,5.333c0.076,3.114,0.223,6.547,0.435,10.298
			c0.212,3.751,0.466,7.302,0.767,10.65c0.138,1.555,0.256,2.861,0.358,3.942c-0.032,0.109-0.058,0.212-0.09,0.322
			c-0.902,3.093-2.072,6.08-3.515,8.97c-1.442,2.888-3.023,5.403-4.744,7.541c-1.719,2.138-3.537,3.378-5.452,3.715
			c-1.403,0.283-2.47-0.87-3.206-3.459c-0.739-2.584-1.384-5.832-1.936-9.743c-0.557-3.906-1.117-8.172-1.684-12.797
			c-0.568-4.622-1.388-8.889-2.463-12.809c-1.078-3.914-2.495-7.078-4.25-9.492c-1.76-2.41-4.055-3.463-6.882-3.156
			c-3.473,0.377-6.406,2.111-8.804,5.195c-2.397,3.087-4.382,6.684-5.952,10.794c-1.573,4.112-2.837,8.335-3.796,12.666
			c-0.963,4.334-1.747,7.9-2.351,10.697c-2.516-6.363-5.077-11.385-7.688-15.072c-2.613-3.683-5.46-5.359-8.547-5.023
			c-1.803,0.194-3.249,0.645-4.343,1.348c-1.095,0.707-2.175,2.159-3.236,4.354c-0.125-2.33-0.261-4.199-0.415-5.616
			c-0.153-1.413-0.356-3.279-0.607-5.595c-0.252-2.313-1.005-3.857-2.26-4.634c-1.255-0.772-3.041-1.036-5.355-0.784
			c-1.031,0.111-2.044,0.354-3.045,0.721c-1.003,0.371-1.852,0.918-2.554,1.644c-0.474,0.442-0.671,2.22-0.592,5.334
			c0.076,3.115,0.223,6.547,0.435,10.298s0.467,7.301,0.767,10.65c0.253,2.855,0.445,4.904,0.574,6.166
			c-0.039,0.235-0.077,0.466-0.119,0.713c-0.559,3.25-1.401,6.592-2.521,10.032c-1.124,3.44-2.509,6.551-4.159,9.332
			c-1.649,2.782-3.568,4.29-5.754,4.528c-1.802,0.194-3.384-0.609-4.751-2.412c-1.366-1.803-2.576-4.239-3.624-7.314
			c-1.05-3.073-1.95-6.554-2.695-10.443c-0.749-3.886-1.371-7.819-1.867-11.8c-0.499-3.978-0.844-7.778-1.042-11.402
			c-0.198-3.619-0.244-6.737-0.138-9.353c-1.44-1.275-2.945-1.956-4.515-2.048c-1.572-0.088-3.188,0.023-4.844,0.331
			c-1.789,0.326-2.993,1.204-3.618,2.637c-0.625,1.436-0.965,3.101-1.02,4.991c-0.057,1.894,0.037,3.932,0.274,6.118
			c0.238,2.187,0.325,4.194,0.264,6.021c-0.063,1.831-0.419,4.534-1.07,8.119c-0.654,3.585-1.564,7.167-2.737,10.739
			c-1.173,3.576-2.525,6.715-4.052,9.417c-1.53,2.704-3.193,4.152-4.993,4.349c-1.542,0.168-2.621-1.375-3.234-4.625
			c-0.615-3.252-1.098-7.102-1.449-11.553c-0.355-4.451-0.711-8.933-1.07-13.45c-0.362-4.512-0.925-7.9-1.689-10.16
			c-0.738-1.998-2.047-2.964-3.925-2.892c-1.879,0.075-3.806,0.608-5.778,1.604c0.14,1.286,0.177,3.43,0.113,6.429
			c-0.064,3.001-0.021,6.412,0.135,10.232c0.152,3.822,0.452,7.757,0.892,11.807c0.44,4.052,1.19,7.68,2.255,10.883
			c1.062,3.2,2.516,5.811,4.362,7.82c1.844,2.014,4.244,2.855,7.204,2.534c2.185-0.236,4.244-1.045,6.178-2.427
			c1.929-1.381,3.671-3.033,5.219-4.958s2.915-3.991,4.108-6.204c1.19-2.209,2.145-4.2,2.865-5.971
			c0.834,2.904,1.856,5.722,3.064,8.451c1.206,2.731,2.732,5.103,4.579,7.112c1.844,2.015,3.998,3.568,6.459,4.668
			c2.461,1.099,5.428,1.46,8.901,1.083c4.728-0.774,8.462-2.644,11.199-5.608c2.343-2.538,4.169-5.403,5.541-8.556
			c0.716,1.886,1.665,3.523,2.845,4.914c1.567,1.848,3.764,2.615,6.594,2.309c3.599-0.392,5.737-1.371,6.414-2.942
			c0.675-1.567,0.845-3.896,0.51-6.982c-0.209-1.929-0.525-4.529-0.944-7.803c-0.422-3.272-0.709-6.525-0.865-9.763
			c-0.155-3.234,0.023-6.083,0.536-8.549c0.514-2.461,1.605-3.784,3.278-3.966c1.027-0.111,2.009,0.532,2.941,1.926
			c0.932,1.396,1.869,3.147,2.815,5.255c0.943,2.113,1.849,4.455,2.713,7.024c0.866,2.574,1.744,4.984,2.64,7.228
			c0.894,2.245,1.818,4.164,2.771,5.75c0.953,1.589,2.016,2.387,3.186,2.386c0.787,0.047,1.584-0.072,2.401-0.357
			c0.814-0.283,1.508-0.779,2.082-1.494c0.215-0.414,0.51-1.877,0.89-4.391c0.377-2.511,0.792-5.582,1.245-9.211
			c0.45-3.627,1.007-7.492,1.667-11.599c0.658-4.103,1.447-7.931,2.364-11.479c0.915-3.546,1.991-6.525,3.226-8.938
			c1.232-2.408,2.623-3.7,4.166-3.868c0.643-0.069,1.202,1.173,1.674,3.723c0.473,2.553,0.897,5.563,1.274,9.035
			s0.727,7.015,1.055,10.619c0.325,3.608,0.601,6.443,0.825,8.499c0.28,2.573,0.752,5.123,1.417,7.652
			c0.665,2.534,1.652,4.734,2.962,6.606c1.308,1.878,3.026,3.315,5.152,4.32c2.126,1.008,4.796,1.334,8.012,0.985
			c2.957-0.321,5.746-1.602,8.366-3.837c2.587-2.209,4.807-4.859,6.667-7.941c0.204,1,0.429,1.986,0.694,2.946
			c0.75,2.719,1.909,4.999,3.475,6.845c1.568,1.848,3.763,2.616,6.594,2.309c3.599-0.391,5.738-1.371,6.414-2.942
			c0.675-1.567,0.846-3.896,0.51-6.982c-0.209-1.929-0.524-4.529-0.944-7.802c-0.423-3.273-0.709-6.526-0.866-9.764
			c-0.155-3.233,0.024-6.082,0.537-8.549c0.513-2.461,1.604-3.784,3.277-3.966c1.028-0.111,2.01,0.532,2.941,1.926
			c0.934,1.396,1.871,3.147,2.816,5.256c0.943,2.112,1.85,4.454,2.714,7.024c0.866,2.574,1.743,4.983,2.64,7.228
			c0.892,2.244,1.817,4.163,2.771,5.749c0.954,1.589,2.016,2.387,3.188,2.386c0.785,0.048,1.582-0.072,2.4-0.357
			c0.814-0.283,1.508-0.779,2.082-1.494c0.215-0.414,0.51-1.876,0.89-4.391c0.377-2.511,0.792-5.582,1.244-9.21
			c0.451-3.628,1.008-7.492,1.668-11.6c0.658-4.103,1.447-7.931,2.364-11.479c0.915-3.546,1.99-6.526,3.226-8.939
			c1.233-2.407,2.623-3.7,4.166-3.868c0.642-0.07,1.202,1.172,1.673,3.723c0.472,2.552,0.896,5.562,1.273,9.035
			c0.377,3.473,0.728,7.014,1.056,10.619c0.325,3.61,0.602,6.443,0.825,8.499c0.279,2.574,0.751,5.125,1.417,7.652
			c0.665,2.534,1.652,4.734,2.962,6.607c1.307,1.877,3.025,3.315,5.153,4.319c2.125,1.008,4.796,1.334,8.012,0.985
			c2.956-0.321,5.745-1.601,8.365-3.836c2.619-2.237,4.863-4.921,6.737-8.051c0.356-0.597,0.687-1.208,1.016-1.82
			c0.073,0.17,0.132,0.348,0.208,0.517c1.543,3.412,3.617,6.34,6.225,8.789c2.607,2.448,5.666,4.265,9.18,5.444
			c3.51,1.18,7.451,1.533,11.824,1.058c3.858-0.418,7.488-1.73,10.894-3.937c3.4-2.206,6.415-5.006,9.041-8.397
			c1.461-1.888,2.783-3.92,3.993-6.068c0.397,2.888,0.833,5.604,1.307,8.149c0.627,3.381,1.26,6.205,1.897,8.478
			c0.827,0.43,2.008,0.822,3.542,1.177c1.533,0.354,3.082,0.511,4.639,0.473c1.558-0.04,2.924-0.318,4.105-0.836
			c1.179-0.52,1.826-1.438,1.947-2.748c-1.442-7.261-2.159-14.761-2.152-22.504c0.004-7.741,0.803-15.083,2.391-22.022
			c0.345-1.599,0.925-3.449,1.739-5.557c0.812-2.103,1.666-4.115,2.563-6.036c0.896-1.917,1.76-3.573,2.585-4.964
			c0.824-1.388,1.486-2.177,1.987-2.363c0.758-0.209,1.295-0.044,1.617,0.509c0.319,0.551,0.495,1.281,0.529,2.188
			c0.032,0.907-0.023,1.889-0.168,2.944c-0.147,1.059-0.243,1.979-0.284,2.764c-0.089,0.399-0.193,0.932-0.315,1.596
			c-0.123,0.667-0.246,1.329-0.369,1.992c-0.123,0.666-0.123,1.281,0.006,1.853c0.127,0.572,0.468,1.023,1.024,1.353
			c1.525,0.877,3.057,0.906,4.597,0.085c1.537-0.816,2.55-1.965,3.041-3.451c0.604-1.628,0.867-3.38,0.795-5.259
			c-0.075-1.877-0.388-3.568-0.941-5.071C482.251,361.085,481.258,359.731,479.982,358.761z M406.451,398.756
			c-0.178-0.435-0.287-0.848-0.328-1.232c-0.182-1.671-0.271-3.973-0.262-6.901c0.006-2.929,0.21-5.844,0.611-8.752
			c0.398-2.903,1.063-5.483,1.99-7.729c0.928-2.249,2.275-3.597,4.049-4.051c1.656-0.308,2.645,0.981,2.959,3.875
			s0.15,6.199-0.486,9.908c-0.64,3.714-1.63,7.175-2.973,10.375c-1.344,3.204-2.785,4.89-4.33,5.056
			C407.037,399.375,406.628,399.193,406.451,398.756z"/>
		<path fill="#FFFFFF" d="M550.704,396.267c-1.007-0.282-2.025-0.366-3.053-0.256c-0.66,1.115-1.795,2.961-3.399,5.542
			c-1.607,2.583-3.472,5.191-5.592,7.829c-2.122,2.64-4.369,4.996-6.745,7.075c-2.379,2.079-4.659,3.237-6.844,3.475
			c-2.188,0.237-4.149-0.463-5.888-2.096c-1.739-1.635-3.312-3.813-4.709-6.527c-1.401-2.715-2.644-5.742-3.719-9.076
			c-1.079-3.336-1.958-6.632-2.635-9.882c-0.68-3.251-1.227-6.189-1.641-8.816c-0.415-2.625-0.699-4.647-0.853-6.063
			c-0.225-2.061-0.418-5.331-0.578-9.809c-0.163-4.478-0.182-9.46-0.062-14.949c0.117-5.486,0.447-11.158,0.982-17.016
			c0.535-5.86,1.349-11.226,2.448-16.103c1.097-4.876,2.572-8.946,4.431-12.209c1.857-3.265,4.199-5.052,7.03-5.359
			c2.827-0.306,5.184,0.413,7.065,2.16c1.879,1.748,3.336,4.064,4.363,6.943c1.028,2.883,1.743,6.153,2.142,9.818
			c0.397,3.666,0.496,7.266,0.294,10.801c-0.201,3.535-0.627,6.801-1.277,9.799c-0.651,2.999-1.407,5.325-2.268,6.98
			c0.111,1.029,0.671,1.683,1.677,1.964c1.007,0.282,1.959,0.374,2.859,0.275c2.186-0.238,3.832-1.846,4.941-4.831
			c1.105-2.981,1.877-6.352,2.317-10.107c0.437-3.756,0.625-7.418,0.563-10.991c-0.065-3.57-0.171-6.062-0.324-7.479
			c-0.727-6.686-3.069-12.092-7.03-16.216c-3.962-4.123-9.607-5.789-16.938-4.993c-5.015,0.544-9.217,2.596-12.604,6.15
			c-3.39,3.557-6.15,7.957-8.289,13.196c-2.139,5.244-3.695,11.072-4.668,17.487c-0.974,6.417-1.595,12.795-1.87,19.135
			c-0.275,6.343-0.299,12.328-0.072,17.964c0.229,5.635,0.538,10.255,0.929,13.854c0.53,4.89,1.477,10.057,2.838,15.5
			c1.361,5.449,3.371,10.368,6.033,14.765c2.66,4.396,6.101,7.892,10.327,10.491c4.225,2.597,9.425,3.563,15.598,2.894
			c2.827-0.308,5.828-1.429,9.004-3.358c3.173-1.933,6.069-4.329,8.685-7.188c2.617-2.86,4.727-5.906,6.327-9.138
			c1.602-3.23,2.24-6.325,1.919-9.286C552.282,397.332,551.71,396.546,550.704,396.267z"/>
		<path fill="#FFFFFF" d="M761.39,351.333c-0.224-2.055-0.582-4.457-1.075-7.202c-0.493-2.743-1.292-5.291-2.392-7.646
			c-1.104-2.35-2.551-4.309-4.346-5.871c-1.799-1.561-4.11-2.188-6.938-1.881c-6.302,0.685-10.354,4.121-12.153,10.297
			c-0.283-1.399-0.466-2.486-0.55-3.258c-0.082-0.772-0.159-1.476-0.23-2.121c-0.069-0.643-0.146-1.351-0.229-2.121
			c-0.083-0.772-0.202-1.863-0.356-3.28c-0.167-1.543-1.115-2.773-2.84-3.693c-1.729-0.916-3.538-1.403-5.43-1.46
			c-1.893-0.054-3.604,0.36-5.134,1.241c-1.532,0.884-2.185,2.354-1.961,4.41c0.921,8.486,1.854,17.69,2.803,27.604
			c0.21,2.209,0.446,4.438,0.667,6.655c-0.011,0.037-0.019,0.07-0.029,0.107c-0.902,3.093-2.072,6.08-3.516,8.97
			c-1.443,2.888-3.024,5.403-4.744,7.541c-1.719,2.138-3.536,3.377-5.451,3.715c-1.402,0.284-2.471-0.87-3.205-3.458
			c-0.738-2.584-1.384-5.832-1.937-9.744c-0.556-3.906-1.117-8.173-1.683-12.797c-0.569-4.622-1.389-8.889-2.464-12.809
			c-1.077-3.914-2.495-7.077-4.251-9.492c-1.76-2.411-4.054-3.463-6.882-3.156c-3.473,0.377-6.406,2.112-8.805,5.195
			c-2.396,3.087-4.383,6.684-5.951,10.795c-1.571,4.111-2.836,8.334-3.797,12.666c-0.962,4.334-1.746,7.899-2.351,10.697
			c-2.515-6.363-5.076-11.385-7.688-15.073c-2.613-3.683-5.461-5.359-8.548-5.024c-1.802,0.196-3.248,0.646-4.342,1.349
			c-1.096,0.706-2.176,2.159-3.236,4.354c-0.124-2.33-0.26-4.199-0.415-5.616c-0.153-1.413-0.355-3.279-0.607-5.595
			c-0.25-2.313-1.004-3.857-2.259-4.633c-1.256-0.772-3.041-1.037-5.356-0.785c-1.03,0.112-2.044,0.354-3.043,0.722
			c-1.003,0.371-1.852,0.918-2.555,1.644c-0.473,0.442-0.67,2.22-0.591,5.334c0.075,3.115,0.222,6.547,0.435,10.297
			c0.212,3.751,0.467,7.302,0.766,10.651c0.17,1.919,0.313,3.466,0.428,4.665c-0.7,2.137-1.598,4.371-2.703,6.707
			c-1.429,3.018-3.005,5.889-4.725,8.612c-1.723,2.725-3.458,4.996-5.214,6.813c-1.753,1.818-3.276,2.795-4.561,2.935
			c-2.314,0.252-4.042-1.285-5.184-4.61c-1.142-3.322-1.979-7.427-2.51-12.316c-0.53-4.886-0.918-9.952-1.161-15.195
			c-0.247-5.243-0.568-9.727-0.974-13.458c-0.293-2.7-1.187-4.326-2.676-4.881c-1.494-0.553-3.395-0.705-5.71-0.453
			c-2.574,0.279-4.746,1.231-6.521,2.854c-1.357-0.502-2.671-0.912-3.94-1.232c-1.272-0.315-2.613-0.398-4.028-0.245
			c-4.373,0.475-8.054,2.534-11.039,6.175c-2.989,3.644-5.357,7.9-7.104,12.774c-1.747,4.875-2.928,9.881-3.54,15.023
			c-0.613,5.141-0.725,9.515-0.333,13.113c0.446,4.117,1.792,7.515,4.035,10.199c2.243,2.683,5.68,3.773,10.31,3.271
			c2.7-0.293,5.138-1.208,7.313-2.746c2.175-1.535,4.089-3.371,5.745-5.504c1.653-2.131,3.028-4.458,4.12-6.985
			c1.094-2.523,1.962-4.995,2.611-7.408c0.68,2.658,1.389,5.314,2.134,7.967c0.742,2.649,1.779,5.011,3.11,7.078
			c1.329,2.069,3.063,3.668,5.206,4.802c2.139,1.133,4.945,1.513,8.418,1.136c3.343-0.363,6.537-1.815,9.579-4.358
			c3.041-2.541,5.675-5.526,7.907-8.959c1.206-1.857,2.262-3.781,3.188-5.761c0.207,1.017,0.434,2.02,0.704,2.996
			c0.751,2.719,1.91,4.999,3.477,6.845c1.566,1.848,3.764,2.616,6.593,2.309c3.6-0.392,5.738-1.371,6.415-2.942
			c0.675-1.566,0.845-3.896,0.511-6.983c-0.211-1.928-0.525-4.529-0.945-7.802c-0.422-3.273-0.708-6.525-0.865-9.763
			c-0.156-3.233,0.023-6.083,0.535-8.548c0.514-2.46,1.605-3.785,3.279-3.966c1.026-0.112,2.009,0.532,2.94,1.925
			c0.933,1.396,1.87,3.148,2.815,5.256c0.943,2.113,1.85,4.454,2.714,7.024c0.866,2.574,1.743,4.984,2.639,7.228
			c0.894,2.245,1.818,4.164,2.772,5.75c0.953,1.589,2.016,2.386,3.187,2.386c0.785,0.047,1.583-0.073,2.4-0.358
			c0.814-0.283,1.508-0.779,2.082-1.495c0.215-0.413,0.511-1.876,0.89-4.391c0.377-2.511,0.791-5.582,1.244-9.21
			c0.452-3.627,1.008-7.493,1.669-11.599c0.658-4.103,1.447-7.931,2.364-11.479c0.914-3.545,1.989-6.526,3.226-8.939
			c1.232-2.407,2.623-3.7,4.166-3.868c0.642-0.07,1.2,1.173,1.673,3.723c0.473,2.552,0.897,5.562,1.274,9.034
			c0.376,3.473,0.728,7.014,1.056,10.62c0.324,3.608,0.602,6.443,0.825,8.499c0.278,2.573,0.751,5.123,1.416,7.652
			c0.666,2.534,1.652,4.734,2.963,6.607c1.307,1.877,3.024,3.315,5.152,4.319c2.124,1.008,4.795,1.335,8.011,0.985
			c2.958-0.321,5.746-1.601,8.367-3.836c2.501-2.137,4.652-4.695,6.475-7.648c0.265,2.384,0.513,4.758,0.789,7.152
			c1.159,10.09,2.498,20.025,4.019,29.814c1.518,9.791,3.31,18.799,5.375,27.034c0.21,0.759,0.666,1.358,1.366,1.803
			c0.698,0.443,1.452,0.785,2.259,1.024c0.807,0.235,1.629,0.341,2.475,0.315c0.841-0.025,1.583-0.074,2.228-0.145
			c2.185-0.236,4.013-0.795,5.479-1.668c1.466-0.876,2.066-2.535,1.802-4.977c-0.545-5.016-1.181-9.664-1.905-13.943
			c-0.727-4.282-1.48-8.524-2.26-12.732c-0.783-4.21-1.575-8.484-2.368-12.821c-0.797-4.337-1.467-9.013-2.012-14.029
			c0.926,0.163,1.848,0.257,2.764,0.286c0.913,0.031,1.82-0.003,2.722-0.101c3.984-0.433,7.112-1.909,9.375-4.434
			c2.263-2.521,3.918-5.53,4.972-9.029c1.051-3.497,1.628-7.17,1.731-11.02C761.838,357.889,761.724,354.42,761.39,351.333z
			 M587.787,370.217c-0.401,2.313-0.976,4.803-1.725,7.476c-0.753,2.675-1.652,5.458-2.704,8.357c-1.052,2.901-2.2,5.521-3.44,7.858
			c-1.244,2.336-2.528,4.29-3.853,5.857c-1.327,1.572-2.634,2.425-3.919,2.564c-2.058,0.224-3.466-0.756-4.223-2.943
			c-0.758-2.186-1.027-4.975-0.811-8.365c0.218-3.39,0.815-7.148,1.801-11.275c0.983-4.123,2.162-7.944,3.538-11.459
			c1.374-3.517,2.838-6.494,4.397-8.932c1.555-2.437,3.04-3.732,4.457-3.886c1.669-0.181,2.979,0.195,3.929,1.127
			c0.945,0.935,1.616,2.031,2.015,3.281c0.396,1.253,0.712,2.968,0.948,5.144C588.323,366.174,588.186,367.904,587.787,370.217z
			 M751.658,365.075c-0.446,3.692-1.226,6.998-2.338,9.915c-1.116,2.92-2.766,4.498-4.951,4.735
			c-1.417,0.154-2.568-0.566-3.455-2.163c-0.89-1.593-1.578-3.439-2.065-5.534c-0.489-2.094-0.875-4.164-1.162-6.217
			c-0.29-2.049-0.466-3.395-0.537-4.04c-0.181-1.671-0.141-3.986,0.124-6.943c0.267-2.956,0.764-5.84,1.501-8.652
			c0.735-2.813,1.777-5.202,3.125-7.171c1.348-1.967,2.933-2.92,4.765-2.859c1.185,0.134,2.105,0.522,2.76,1.165
			c0.657,0.645,1.137,1.471,1.44,2.479c0.306,1.009,0.523,2.124,0.657,3.345c0.132,1.223,0.261,2.41,0.387,3.568
			c0.154,1.417,0.261,3.908,0.324,7.478C752.294,357.754,752.104,361.387,751.658,365.075z"/>
	</g>
	<g>
		<path fill="none" stroke="#FFFFFF" stroke-width="2" stroke-miterlimit="10" d="M698.878,301.471
			C658.024,177.234,541.084,87.527,403.175,87.527c-146.239,0-268.898,100.869-302.257,236.821"/>
		<path fill="none" stroke="#FFFFFF" stroke-width="2" stroke-miterlimit="10" d="M103.866,484.359
			c37.184,130.267,157.108,225.637,299.309,225.637c149.729,0,274.746-105.737,304.498-246.61"/>
	</g>
	<path fill="#FFFFFF" d="M679.977,434.217c-46.328-3.555-181.918,5.083-279.353,10.974c-97.431,5.892-259,23.494-269.951,29.349
		c-10.949,5.856,6.265,11.982,17.305,10.965c11.042-1.017,123.362-17.277,285.015-30.443
		c161.651-13.166,238.042-15.026,253.077-17.732C701.102,434.622,679.977,434.217,679.977,434.217z"/>
	<g>
		<path fill="#FFFFFF" d="M189.033,306.21l-0.866,2.219l-30.376-0.723l26.604,10.385l-1.182,3.028l-36.174-14.12l0.938-2.404
			l29.841,0.728l-26.142-10.204l1.182-3.028L189.033,306.21z"/>
		<path fill="#FFFFFF" d="M196.102,285.393c0.725,0.363,1.199,0.893,1.424,1.588c0.225,0.696,0.156,1.406-0.208,2.13l-4.872,9.715
			c-0.363,0.725-0.889,1.201-1.578,1.43c-0.688,0.229-1.395,0.161-2.119-0.203l-29.788-14.937c-0.725-0.363-1.201-0.889-1.43-1.578
			c-0.229-0.688-0.161-1.395,0.202-2.119l4.872-9.715c0.363-0.725,0.891-1.205,1.583-1.441c0.692-0.236,1.4-0.172,2.125,0.191
			L196.102,285.393z M194.29,288.342l-29.256-14.67l-4.26,8.495l29.255,14.67L194.29,288.342z"/>
		<path fill="#FFFFFF" d="M209.932,267.911l-1.912,3.077l-21.472-4.841l-0.341-0.767l3.248-5.227l-12.14-7.543l-4.675,7.524
			l30.39,18.884l-1.82,2.93l-32.983-20.495l6.862-11.043c0.428-0.688,0.995-1.115,1.701-1.28c0.706-0.165,1.404-0.034,2.092,0.394
			l12.519,7.779c1.588,0.987,1.718,2.548,0.391,4.684c-0.131,0.21-0.333,0.513-0.607,0.908c-0.274,0.395-0.468,0.683-0.582,0.865
			C197.036,265.126,203.479,266.511,209.932,267.911z"/>
		<path fill="#FFFFFF" d="M216.455,247.323c1.638,1.234,2.577,2.786,2.816,4.654c0.239,1.868-0.259,3.622-1.494,5.259l-5.346,7.094
			l-31.012-23.37l5.346-7.094c1.245-1.651,2.795-2.616,4.652-2.895c1.856-0.279,3.604,0.199,5.242,1.434L216.455,247.323z
			 M214.102,249.869l-19.281-14.53c-1.017-0.766-2.081-1.065-3.191-0.898c-1.11,0.168-2.049,0.761-2.815,1.778l-2.882,3.824
			l26.138,19.696l2.763-3.666c0.806-1.07,1.153-2.17,1.042-3.3C215.763,251.644,215.172,250.675,214.102,249.869z"/>
		<path fill="#FFFFFF" d="M228.039,244.653l-2.252,2.612l-29.405-25.362l2.252-2.612L228.039,244.653z"/>
		<path fill="#FFFFFF" d="M240.813,227.17c0.578,0.568,0.865,1.221,0.859,1.957c-0.005,0.737-0.292,1.395-0.859,1.973l-7.007,7.133
			c-0.568,0.579-1.215,0.871-1.94,0.877c-0.725,0.007-1.376-0.274-1.955-0.842l-23.773-23.352c-0.578-0.568-0.871-1.214-0.877-1.94
			c-0.006-0.725,0.274-1.377,0.842-1.955l7.007-7.134c0.568-0.578,1.22-0.876,1.957-0.895c0.737-0.018,1.395,0.257,1.973,0.825
			l6.443,6.329l-2.435,2.479l-6.231-6.121l-6.051,6.16l23.348,22.934l6.051-6.16l-6.815-6.694l2.434-2.479L240.813,227.17z"/>
		<path fill="#FFFFFF" d="M264.38,207.447c0.5,0.638,0.701,1.322,0.601,2.052c-0.1,0.73-0.469,1.346-1.106,1.846l-7.867,6.173
			c-0.638,0.5-1.317,0.708-2.037,0.62c-0.72-0.086-1.33-0.449-1.831-1.087l-20.57-26.216c-0.5-0.637-0.707-1.316-0.621-2.037
			c0.087-0.719,0.449-1.33,1.087-1.83l7.867-6.173c0.637-0.5,1.323-0.712,2.056-0.636c0.733,0.077,1.35,0.434,1.85,1.072
			l5.576,7.105l-2.733,2.145l-5.392-6.872l-6.793,5.331l20.203,25.748l6.793-5.33l-5.897-7.516l2.733-2.145L264.38,207.447z"/>
		<path fill="#FFFFFF" d="M283.964,197.728l-2.895,1.876l-10.147-15.659l-7.851,5.087l10.147,15.659l-2.894,1.876l-21.118-32.588
			l2.895-1.875l9.284,14.326l7.85-5.087l-9.284-14.326l2.895-1.876L283.964,197.728z"/>
		<path fill="#FFFFFF" d="M292.063,193.241l-3.014,1.678l-18.887-33.929l3.014-1.677L292.063,193.241z"/>
		<path fill="#FFFFFF" d="M311.674,183.53l-2.154,1.017l-21.574-21.396l12.196,25.825l-2.939,1.388l-16.583-35.113l2.333-1.102
			l21.183,21.031l-11.984-25.375l2.939-1.388L311.674,183.53z"/>
		<path fill="#FFFFFF" d="M328.686,177.017l-11.946,4.466l-13.597-36.374l11.807-4.414l1.068,2.859l-8.576,3.206l5.074,13.573
			l7.809-2.919l1.086,2.905l-7.809,2.919l5.3,14.178l8.715-3.258L328.686,177.017z"/>
		<path fill="#FFFFFF" d="M346.91,168.761c0.221,0.78,0.159,1.485-0.187,2.116s-0.908,1.057-1.688,1.278l-9.406,2.666
			c-0.78,0.221-1.49,0.156-2.131-0.196c-0.641-0.351-1.072-0.917-1.293-1.697l-2.686-9.477l3.318-0.94l2.604,9.191l8.069-2.287
			l-2.523-8.904l-13.844-9.539c-0.959-0.657-1.586-1.502-1.879-2.537l-2.145-7.567c-0.221-0.78-0.15-1.487,0.211-2.123
			c0.362-0.635,0.932-1.063,1.712-1.285l9.406-2.666c0.78-0.221,1.482-0.153,2.108,0.202c0.625,0.356,1.048,0.924,1.269,1.704
			l2.462,8.689l-3.318,0.94l-2.381-8.403l-8.069,2.286l2.232,7.878l13.892,9.525c0.919,0.634,1.525,1.468,1.818,2.502
			L346.91,168.761z"/>
		<path fill="#FFFFFF" d="M365.425,167.756l-12.513,2.466l-7.509-38.099l12.367-2.438l0.59,2.995l-8.983,1.771l2.802,14.217
			l8.18-1.612l0.6,3.043l-8.18,1.612l2.927,14.85l9.129-1.799L365.425,167.756z"/>
		<path fill="#FFFFFF" d="M394.835,161.945c0.059,0.809-0.158,1.488-0.649,2.037c-0.491,0.55-1.141,0.854-1.949,0.912l-9.974,0.72
			c-0.808,0.059-1.487-0.149-2.035-0.624s-0.852-1.116-0.91-1.924l-2.4-33.237c-0.058-0.809,0.15-1.487,0.625-2.036
			c0.474-0.548,1.116-0.852,1.924-0.91l9.974-0.72c0.808-0.058,1.495,0.149,2.06,0.623c0.564,0.474,0.876,1.114,0.935,1.922
			l0.651,9.009l-3.465,0.25l-0.629-8.711l-8.613,0.622l2.357,32.643l8.613-0.622l-0.688-9.528l3.465-0.25L394.835,161.945z"/>
		<path fill="#FFFFFF" d="M416.484,164.817l-3.449-0.059l0.318-18.656L404,145.942l-0.317,18.656l-3.449-0.059l0.661-38.826
			l3.449,0.059l-0.291,17.069l9.354,0.159l0.29-17.069l3.448,0.059L416.484,164.817z"/>
		<path fill="#FFFFFF" d="M438.348,166.937l-3.603-0.388l-4.956-21.446l0.543-0.64l6.119,0.658l1.527-14.21l-8.807-0.947
			l-3.826,35.575l-3.429-0.369l4.151-38.609l12.928,1.39c0.806,0.086,1.437,0.413,1.892,0.977c0.454,0.565,0.639,1.25,0.552,2.056
			l-1.575,14.654c-0.2,1.859-1.55,2.653-4.05,2.384c-0.247-0.026-0.607-0.078-1.082-0.154c-0.475-0.076-0.818-0.125-1.032-0.148
			C435.26,154.11,436.809,160.516,438.348,166.937z"/>
		<path fill="#FFFFFF" d="M446.431,168.418l-3.397-0.592l6.667-38.255l3.397,0.592L446.431,168.418z"/>
		<path fill="#FFFFFF" d="M467.604,170.317c-0.19,0.788-0.591,1.372-1.202,1.751c-0.611,0.38-1.311,0.475-2.098,0.284l-9.502-2.299
			c-0.788-0.191-1.375-0.596-1.761-1.217s-0.483-1.326-0.293-2.113l2.316-9.574l3.353,0.811l-2.247,9.285l8.151,1.973l2.177-8.996
			l-7.372-15.11c-0.514-1.043-0.644-2.087-0.391-3.132l1.85-7.645c0.19-0.788,0.6-1.37,1.227-1.746
			c0.627-0.375,1.335-0.469,2.122-0.278l9.502,2.299c0.788,0.19,1.367,0.595,1.736,1.211c0.37,0.617,0.46,1.32,0.27,2.107
			l-2.124,8.778l-3.353-0.811l2.054-8.489l-8.151-1.972l-1.926,7.958l7.421,15.122c0.488,1.003,0.607,2.027,0.354,3.072
			L467.604,170.317z"/>
		<path fill="#FFFFFF" d="M495.994,144.732l-5.704-1.875l-11.171,33.991l-3.276-1.077l11.171-33.991l-5.752-1.891l0.953-2.899
			l14.732,4.842L495.994,144.732z"/>
		<path fill="#FFFFFF" d="M491.481,181.411l-3.21-1.262l14.207-36.14l3.21,1.262L491.481,181.411z"/>
		<path fill="#FFFFFF" d="M511.177,190.231l-3.102-1.451l2.423-8.399l-6.99-3.27l-4.895,7.243l-3.012-1.409l0.042-0.09l22.726-32.24
			l3.079,1.44L511.177,190.231z M511.387,177.427l5.837-20.499l-12.018,17.607L511.387,177.427z"/>
		<path fill="#FFFFFF" d="M528.44,200.071l-2.061-1.194l5.347-29.91l-14.32,24.709l-2.813-1.63l19.471-33.597l2.233,1.294
			l-5.27,29.381l14.071-24.28l2.813,1.63L528.44,200.071z"/>
		<path fill="#FFFFFF" d="M554.875,215.736c-0.495,0.642-1.108,1.005-1.84,1.088c-0.733,0.083-1.42-0.122-2.063-0.616l-7.924-6.099
			c-0.643-0.495-1.011-1.102-1.104-1.82c-0.094-0.719,0.107-1.4,0.602-2.042l20.325-26.407c0.494-0.642,1.101-1.01,1.82-1.104
			c0.719-0.093,1.399,0.107,2.042,0.601l7.924,6.099c0.643,0.494,1.017,1.106,1.124,1.835c0.106,0.729-0.088,1.415-0.582,2.057
			l-5.509,7.158l-2.753-2.119l5.327-6.921l-6.843-5.267l-19.961,25.936l6.843,5.267l5.826-7.57l2.753,2.119L554.875,215.736z"/>
		<path fill="#FFFFFF" d="M569.133,232.313l-2.533-2.341l12.665-13.702l-6.869-6.35l-12.665,13.702l-2.533-2.341l26.358-28.516
			l2.532,2.341l-11.587,12.536l6.869,6.35l11.588-12.536l2.532,2.341L569.133,232.313z"/>
		<path fill="#FFFFFF" d="M585.748,246.284c-0.603,0.542-1.269,0.792-1.998,0.748s-1.366-0.367-1.908-0.97l-7.073-7.854
			c-0.543-0.602-0.795-1.266-0.757-1.99c0.037-0.724,0.357-1.357,0.96-1.9l26.809-24.143l2.308,2.563l-26.587,23.944l6.16,6.84
			l26.588-23.944l2.308,2.563L585.748,246.284z"/>
		<path fill="#FFFFFF" d="M597.036,265.538l-2.173-2.899l12.311-18.247l0.839-0.039l3.689,4.924l11.438-8.57l-5.312-7.089
			l-28.634,21.456l-2.068-2.76l31.076-23.285l7.797,10.405c0.485,0.648,0.677,1.332,0.574,2.05s-0.479,1.32-1.127,1.806
			l-11.795,8.838c-1.496,1.121-2.998,0.675-4.506-1.337c-0.148-0.199-0.356-0.498-0.625-0.896c-0.268-0.399-0.466-0.685-0.595-0.856
			C604.313,254.535,600.684,260.035,597.036,265.538z"/>
		<path fill="#FFFFFF" d="M609.985,280.947c-0.689,0.427-1.392,0.55-2.106,0.37c-0.715-0.18-1.285-0.615-1.711-1.304l-5.264-8.502
			c-0.427-0.689-0.557-1.387-0.391-2.093c0.166-0.706,0.594-1.272,1.283-1.699l28.334-17.54c0.688-0.426,1.387-0.557,2.093-0.391
			c0.705,0.166,1.271,0.594,1.698,1.283l5.264,8.502c0.426,0.689,0.561,1.394,0.403,2.114c-0.157,0.72-0.581,1.293-1.27,1.72
			l-7.68,4.754l-1.828-2.954l7.426-4.597l-4.545-7.342l-27.827,17.226l4.545,7.342l8.122-5.028l1.828,2.954L609.985,280.947z"/>
		<path fill="#FFFFFF" d="M617.465,301.484l-1.542-3.085l16.689-8.343l-4.183-8.367l-16.69,8.344l-1.542-3.085l34.733-17.364
			l1.542,3.085l-15.269,7.633l4.183,8.367l15.27-7.634l1.542,3.085L617.465,301.484z"/>
	</g>
	<g>
		<path fill="#FFFFFF" d="M167.648,532.687c-2.097,1.096-3.689,0.603-4.777-1.479l-5.413-10.357
			c-1.08-2.067-0.572-3.648,1.525-4.744l8.203-4.286l2.689,5.146l-7.015,3.666l3.287,6.289l6.751-3.527l4.375-15.416
			c0.328-1.123,1.049-1.976,2.163-2.559l7.653-3.999c2.111-1.103,3.707-0.621,4.787,1.446l5.413,10.358
			c1.087,2.081,0.59,3.666-1.491,4.754L188.1,522l-2.689-5.146l6.487-3.39l-3.287-6.289l-6.224,3.252l-4.331,15.393
			c-0.313,1.115-1.049,1.976-2.207,2.581L167.648,532.687z"/>
		<path fill="#FFFFFF" d="M165.361,547.335c-1.766,1.076-3.195,0.717-4.288-1.076l-3.138-5.149l4.047-2.466l1.872,3.072
			l25.171-15.34l2.905,4.767L165.361,547.335z M195.029,529.313l-2.957-4.853l5-3.047l2.957,4.852L195.029,529.313z"/>
		<path fill="#FFFFFF" d="M185.444,560.776c-1.697,1.182-3.146,0.909-4.346-0.815l-5.81-8.351c-1.219-1.752-0.98-3.218,0.718-4.399
			l15.48-10.77c1.697-1.181,3.155-0.896,4.374,0.856l5.81,8.351c1.2,1.725,0.951,3.178-0.746,4.358L185.444,560.776z
			 M183.594,555.293l12.812-8.913l-3.075-4.42l-12.812,8.913L183.594,555.293z M199.506,539.628l-3.104-4.461l4.379-3.047
			l3.103,4.461L199.506,539.628z M203.828,545.84l-3.103-4.461l4.379-3.046l3.104,4.46L203.828,545.84z"/>
		<path fill="#FFFFFF" d="M216.623,564.473l-23.468,10.988l-3.448-4.199l15.343-20.884l3.7,4.507l-10.638,13.006l14.827-7.905
			L216.623,564.473z"/>
		<path fill="#FFFFFF" d="M203.993,587.58l-3.789-4.101l18.405-17.009l3.789,4.101L203.993,587.58z M225.074,568.165l-3.856-4.173
			l4.3-3.974l3.856,4.173L225.074,568.165z"/>
		<path fill="#FFFFFF" d="M219.801,603.24l-4.357-4.203l4.388-11.73l-7.977,8.268l-4.089-3.945l26.963-27.945l4.089,3.945
			l-16.195,16.785l9.865-3.757l4.268,4.118l-0.069,0.071l-12.068,4.182L219.801,603.24z"/>
		<path fill="#FFFFFF" d="M264.952,596.294l-7.995-6.088l-6.96,9.14l6.83,5.201l-3.052,4.008l-6.83-5.201l-10.402,13.66l-4.62-3.518
			l23.526-30.894l12.614,9.605L264.952,596.294z"/>
		<path fill="#FFFFFF" d="M264.05,632.19c-1.12,1.738-2.563,2.038-4.329,0.901l-8.552-5.51c-1.794-1.155-2.131-2.603-1.011-4.341
			l10.212-15.853c1.12-1.738,2.577-2.03,4.371-0.874l8.552,5.509c1.766,1.138,2.089,2.576,0.97,4.313L264.05,632.19z
			 M260.251,627.825l8.452-13.121l-4.526-2.916l-8.452,13.121L260.251,627.825z"/>
		<path fill="#FFFFFF" d="M272.159,640.3l-4.868-2.733l19.012-33.859l4.868,2.733L272.159,640.3z"/>
		<path fill="#FFFFFF" d="M292.016,650.318l-5.441-2.654l0.555-12.512l-5.037,10.325l-5.107-2.491l17.026-34.9l5.107,2.491
			l-10.227,20.962l8.225-6.616l5.33,2.601l-0.043,0.089l-10.189,7.701L292.016,650.318z"/>
		<path fill="#FFFFFF" d="M311.492,658.115l-5.312-2.086l7.429-18.915l-5.001-1.857l-7.393,18.822l-5.289-2.077l14.196-36.145
			l5.289,2.078l-5.37,13.672c1.304,0.299,2.611,0.591,3.922,0.874c1.652,0.364,2.932,0.725,3.84,1.082
			c1.924,0.756,2.515,2.08,1.771,3.975L311.492,658.115z"/>
		<path fill="#FFFFFF" d="M333.868,661.846c-0.594,1.98-1.898,2.668-3.91,2.064l-9.744-2.923c-2.044-0.613-2.769-1.91-2.174-3.891
			l5.419-18.063c0.594-1.98,1.913-2.664,3.957-2.051l9.744,2.923c2.012,0.604,2.721,1.896,2.127,3.877L333.868,661.846z
			 M329.008,658.703l4.485-14.949l-5.158-1.547l-4.485,14.949L329.008,658.703z M331.72,636.539l-5.205-1.562l1.533-5.11
			l5.205,1.563L331.72,636.539z M338.969,638.714l-5.205-1.562l1.533-5.11l5.205,1.563L338.969,638.714z"/>
		<path fill="#FFFFFF" d="M353.786,675.673c-0.429,2.022-1.687,2.813-3.774,2.37l-9.661-2.048c-2.088-0.442-2.917-1.675-2.488-3.697
			l0.833-3.933l5.364,1.137l-0.623,2.938l5.025,1.065l1.075-5.073l-5.704-1.209c-1.554-0.33-2.695-1.028-3.424-2.096
			s-0.931-2.37-0.605-3.907l3.18-15.001c0.298-1.408,0.93-2.433,1.894-3.073c0.964-0.642,2.143-0.814,3.534-0.52
			c0.696,0.147,2.729,0.926,6.1,2.333l0.19-0.897l5.534,1.173L353.786,675.673z M350.484,663.965l3.195-15.073
			c-1.82-0.589-2.957-0.932-3.409-1.027c-1.198-0.254-1.921,0.21-2.172,1.392l-2.49,11.748c-0.261,1.229,0.224,1.975,1.454,2.235
			L350.484,663.965z"/>
		<path fill="#FFFFFF" d="M376.933,669.673c-0.265,2.051-1.439,2.941-3.523,2.672l-9.474-1.224c-2.083-0.27-2.993-1.43-2.728-3.48
			l0.69-5.34l5.389,0.696l-0.541,4.184l4.946,0.639l0.509-3.937l-7.979-6.21c-1.045-0.819-1.495-1.795-1.348-2.927l0.75-5.808
			c0.265-2.051,1.456-2.939,3.572-2.666l9.375,1.212c2.083,0.27,2.993,1.43,2.728,3.479l-0.646,4.996l-5.34-0.69l0.496-3.839
			l-4.946-0.639l-0.464,3.593l7.961,6.157c1.063,0.805,1.519,1.798,1.366,2.979L376.933,669.673z"/>
		<path fill="#FFFFFF" d="M398.941,674.116l-6.046-0.314l-4.384-11.731l-0.596,11.473l-5.675-0.295l2.016-38.779l5.674,0.295
			l-1.211,23.293l4.981-9.308l5.922,0.308l-0.005,0.1l-6.365,11.073L398.941,674.116z"/>
		<path fill="#FFFFFF" d="M419.596,670.615c0.053,2.067-0.971,3.127-3.07,3.181l-10.17,0.259c-2.134,0.054-3.227-0.952-3.279-3.02
			l-0.479-18.852c-0.053-2.066,0.987-3.128,3.121-3.182l10.17-0.259c2.1-0.054,3.177,0.953,3.229,3.021L419.596,670.615z
			 M413.999,669.145l-0.397-15.603l-5.383,0.137l0.397,15.603L413.999,669.145z"/>
		<path fill="#FFFFFF" d="M430.818,672.77l-5.563,0.476l-3.306-38.691l5.563-0.475L430.818,672.77z"/>
		<path fill="#FFFFFF" d="M452.389,669.95l-5.377,0.785l-0.126-0.859c-1.248,0.383-2.496,0.766-3.744,1.148
			c-1.634,0.489-2.884,0.797-3.752,0.924c-2.046,0.298-3.216-0.559-3.51-2.572l-1.304-8.938c-0.299-2.046,0.607-3.223,2.719-3.531
			l7.587-1.107l-0.832-5.696l-5.377,0.785l0.517,3.535l-5.082,0.742l-0.678-4.641c-0.299-2.046,0.607-3.223,2.719-3.531l9.502-1.387
			c2.079-0.304,3.268,0.568,3.566,2.614L452.389,669.95z M446.408,666.26l-0.971-6.654l-5.377,0.785l1,6.85L446.408,666.26z"/>
		<path fill="#FFFFFF" d="M497.563,654.212c0.733,2.249-0.009,3.734-2.226,4.458l-11.11,3.625c-2.233,0.729-3.717-0.031-4.45-2.28
			l-2.556-7.831l5.426-1.771l2.108,6.464l6.889-2.248l-3.625-11.11l-9.177,2.994c-2.186,0.713-3.641-0.039-4.364-2.256
			l-4.679-14.342c-0.739-2.265-0.016-3.754,2.17-4.467l11.275-3.679c2.249-0.734,3.743,0.031,4.481,2.296L497.563,654.212z
			 M486.495,638.849l-3.802-11.653l-7.054,2.302l3.803,11.652L486.495,638.849z"/>
		<path fill="#FFFFFF" d="M510.45,639.423l-10.931,4.537l-1.988-4.789l10.931-4.538L510.45,639.423z"/>
		<path fill="#FFFFFF" d="M526.539,645.473l-5.143,2.475l-11.877-24.685l-2.013,0.968l-0.333-0.693l-1.921-10.916l4.449-2.141
			L526.539,645.473z"/>
		<path fill="#FFFFFF" d="M546.773,630.349c1.172,2.056,0.736,3.664-1.304,4.827l-10.11,5.764c-1.998,1.139-3.582,0.68-4.753-1.375
			l-4.437-7.782l4.958-2.826l3.724,6.532l6.251-3.563l-7.396-12.978l-11.21,6.39l-8.824-16.733l15.392-8.773l2.52,4.42
			l-10.714,6.106l4.051,7.858l8.213-4.682c2.041-1.163,3.643-0.724,4.806,1.316L546.773,630.349z"/>
		<path fill="#FFFFFF" d="M575.255,610.133c1.43,1.885,1.194,3.547-0.703,4.986l-8.779,6.655c-1.859,1.409-3.503,1.171-4.932-0.714
			l-5.771-7.612l4.607-3.493l4.901,6.466l5.181-3.928l-20.446-26.97l4.627-3.508L575.255,610.133z"/>
		<path fill="#FFFFFF" d="M594.608,597.795l-4.204,3.786l-0.581-0.646c-0.827,1.035-1.66,2.075-2.5,3.12
			c-1.026,1.258-1.927,2.235-2.701,2.934c-1.536,1.384-2.996,1.308-4.38-0.229l-14.795-16.428l4.186-3.77l13.615,15.119l3.918-3.695
			l-13.532-15.027l4.203-3.785L594.608,597.795z"/>
		<path fill="#FFFFFF" d="M602.484,589.795l-3.915,3.979l-27.683-27.232l3.915-3.979L602.484,589.795z"/>
		<path fill="#FFFFFF" d="M598.688,556.544l14.486,21.013l5.55,8.052l-3.823,4.37l-5.325-8.119l-22.896-11.589l3.839-4.389
			l14.574,8.363l-10.229-13.331L598.688,556.544z"/>
		<path fill="#FFFFFF" d="M614.744,529.36c1.015,0.686,1.902,1.794,2.663,3.327l9.467,19.272l6.654-9.848l4.214,2.849
			l-10.544,15.604l-2.98-2.014l-11.799-23.844l-5.941-4.015l-3.959,5.859l5.982,4.042l-3.182,4.708l-7.154-4.834
			c-1.946-1.315-2.257-2.953-0.933-4.913l6.376-9.437c1.325-1.96,2.96-2.282,4.906-0.967L614.744,529.36z"/>
		<path fill="#FFFFFF" d="M647.123,521.16c2.073,1.141,2.547,2.732,1.423,4.775l-5.835,10.61c-1.108,2.015-2.698,2.452-4.771,1.312
			l-27.785-15.281c-2.087-1.148-2.564-2.751-1.433-4.81l5.8-10.544c1.124-2.044,2.729-2.492,4.816-1.344L647.123,521.16z
			 M643.124,525.445l-25.285-13.906l-3.695,6.718l25.285,13.907L643.124,525.445z"/>
		<path fill="#FFFFFF" d="M655.815,510.794l-2.389,5.183l-24.877-11.468l-0.936,2.027l-0.698-0.321l-8.433-7.193l2.067-4.484
			L655.815,510.794z"/>
		<path fill="#FFFFFF" d="M661.985,485.666c2.214,0.835,2.909,2.343,2.086,4.525l-4.325,11.469
			c-0.812,2.151-2.323,2.811-4.537,1.976l-10.563-3.983c-1.347-0.508-2.206-1.345-2.58-2.512c-0.216-1.301-0.43-2.61-0.641-3.927
			c-0.994,0.809-1.989,1.618-2.983,2.428c-1.1,0.664-2.275,0.76-3.529,0.287l-9.356-3.528c-2.229-0.841-2.929-2.359-2.1-4.558
			l4.264-11.307c0.811-2.151,2.331-2.807,4.56-1.967l9.356,3.528c1.27,0.479,2.093,1.319,2.47,2.522
			c0.213,1.265,0.425,2.529,0.638,3.794c1.022-0.834,2.047-1.677,3.074-2.526c1.057-0.645,2.258-0.713,3.604-0.205L661.985,485.666z
			 M640.194,483.68l-8.707-3.283l-2.652,7.035l8.706,3.283l3.412-2.718L640.194,483.68z M658.692,490.603l-10.076-3.8l-3.392,2.805
			l0.686,4.369l10.076,3.8L658.692,490.603z"/>
	</g>
	<g>
		<path fill="none" stroke="#FFFFFF" stroke-width="2" stroke-miterlimit="10" d="M598.475,322.806
			c-31.897-81.824-113.562-137.735-206.035-132.736c-98.058,5.301-176.647,77.383-194.088,169.753"/>
		<path fill="none" stroke="#FFFFFF" stroke-width="2" stroke-miterlimit="10" d="M206.128,467.006
			c29.655,86.001,113.525,145.603,208.875,140.446c100.4-5.425,180.394-80.858,195.235-176.396"/>
	</g>
</g>
</svg>